<svg xmlns="http://www.w3.org/2000/svg" width="24.253" height="25.189" viewBox="0 0 24.253 25.189">
    <g data-name="Group 3929">
        <path data-name="Subtraction 3" d="M8653.428-3041.24h-2.015l1.677-3.64a6.907 6.907 0 0 0 .338 3.639zm-2.512 0h-10.414v-6.041a4.776 4.776 0 0 1 .833-2.847 4.662 4.662 0 0 1 1.833-1.481 7.2 7.2 0 0 1 2.665-.649l5.084 11.019zm.249-2.913-3.662-8.1h7.324l-3.66 8.1zm3.4-3.908 1.936-4.2a6.465 6.465 0 0 1 4.177 1.735 6.934 6.934 0 0 0-.792-.045 6.853 6.853 0 0 0-4.875 2.02 5.182 5.182 0 0 0-.45.488zm-3.4-5.4a5.267 5.267 0 0 1-5.26-5.262 5.267 5.267 0 0 1 5.26-5.262 5.268 5.268 0 0 1 5.262 5.262 5.268 5.268 0 0 1-5.264 5.256z" transform="translate(-8640.5 3063.991)" style="fill:#fff"/>
        <g data-name="Icon ionic-md-close-circle-outline">
            <path data-name="Path 34727" d="m17.581 16.617-.964.964-2.483-2.481-2.482 2.482-.964-.964 2.482-2.482-2.482-2.482.964-.964 2.482 2.482 2.482-2.482.964.964-2.48 2.48z" transform="rotate(45 9.296 23.555)" style="fill:#fff"/>
        </g>
    </g>
</svg>
