<svg xmlns="http://www.w3.org/2000/svg" width="22" height="21.999" viewBox="0 0 22 21.999">
    <g data-name="aircraft icon" style="opacity:.6">
        <g data-name="Group 4654">
            <path data-name="Path 47562" d="M21.738 2.138A1.352 1.352 0 0 0 21.53.313 1.3 1.3 0 0 0 20.684 0a1.287 1.287 0 0 0-.8.274c-1.774 1.379-5.78 4.5-6.09 4.8a.439.439 0 0 1-.276.1.206.206 0 0 1-.035 0c-.711-.09-8.444-1.13-9.262-1.238a13.315 13.315 0 0 0-1.754-.129C-.322 3.805-.511 5.041.735 5.673c.386.2.771.4 1.156.594l3.845 1.969 3.4 1.74c.167.086.176.13.066.267q-1.644 2.039-3.291 4.071a.267.267 0 0 1-.185.088c-.437-.013-.873-.042-1.309-.06-.817-.033-1.617-.062-2.397-.092h-.814a.669.669 0 0 0-.685.521 5.58 5.58 0 0 0-.069.292.658.658 0 0 0 .348.767c1.088.633 2.172 1.269 3.267 1.89a3.713 3.713 0 0 1 1.154 1.025c.725.979 1.469 1.946 2.207 2.918a.708.708 0 0 0 .581.337 1.068 1.068 0 0 0 .32-.056l.207-.065a.661.661 0 0 0 .493-.747c-.192-1.434-.391-2.867-.58-4.3a.278.278 0 0 1 .077-.214q1.905-1.761 3.817-3.514a.251.251 0 0 1 .164-.066.23.23 0 0 1 .192.106c1.075 1.581 3.8 5.606 5.176 7.645a1.31 1.31 0 0 0 .939.689c.717 0 1.208-1.434.239-5.411q-.915-3.762-1.836-7.523a.53.53 0 0 1 .132-.535c.271-.292 3.032-4.028 4.389-5.869m-5.881 6.735q.864 3.518 1.718 7.035l.118.486a19.632 19.632 0 0 1 .431 2.26c-1.444-2.135-3.4-5.019-4.267-6.3a1.626 1.626 0 0 0-2.461-.283l-1.058.972q-1.383 1.269-2.763 2.543a1.676 1.676 0 0 0-.514 1.425l.3 2.262c-.343-.453-.686-.907-1.023-1.364a5.1 5.1 0 0 0-1.59-1.41q-.7-.4-1.394-.8l.992.039c.172.007.343.016.514.024.271.015.542.029.857.037a1.679 1.679 0 0 0 1.276-.601q1.4-1.728 2.8-3.461l.5-.613a1.538 1.538 0 0 0 .345-1.326 1.555 1.555 0 0 0-.868-1.071L7.574 7.6l-1.2-.613L2.91 5.215c.347.017.726.052 1.13.106l2.148.288c2.6.349 6.62.889 7.123.952a1.852 1.852 0 0 0 .211.012 1.819 1.819 0 0 0 1.236-.483c.207-.187 5.9-4.725 5.9-4.725l-.525.693c-1.128 1.484-3.689 4.85-3.814 5a1.923 1.923 0 0 0-.466 1.82" style="fill:#434244"/>
        </g>
    </g>
</svg>
