<svg xmlns="http://www.w3.org/2000/svg" width="22" height="28" viewBox="0 0 22 28">
    <defs>
        <clipPath id="w4x04iko6a">
            <path data-name="Rectangle 2582" style="fill:#434244" d="M0 0h22v28H0z"/>
        </clipPath>
    </defs>
    <g style="opacity:.6">
        <g data-name="Group 4643" style="clip-path:url(#w4x04iko6a)">
            <path data-name="Path 47741" d="M3.848 16.314a.717.717 0 0 1-.584-.307l-.236-.314c-.18-.238-.36-.478-.537-.719a.807.807 0 0 0-.253-.225 74.797 74.797 0 0 1-.829-.483l-.309-.184a.711.711 0 0 1-.353-.782l.029-.125a.714.714 0 0 1 .7-.549l1.394.045.7-.869-2.47-1.273a.815.815 0 0 1-.5-.893c.072-.3.371-.842 1.993-.628l3.073.415c.355-.292 1.26-1 2.023-1.6a.938.938 0 0 1 1.177.028.964.964 0 0 1 .147 1.292c-.968 1.324-1.322 1.8-1.462 1.978l.606 2.511c.364 1.508.164 2-.02 2.23a.758.758 0 0 1-1.251-.19l-1.544-2.3-.84.781.174 1.3a.719.719 0 0 1-.5.787 1.044 1.044 0 0 1-.329.066m-1.655-2.7.516.3a1.783 1.783 0 0 1 .551.491c.125.171.251.34.378.509l-.143-1.08.213-.246 1.463-1.357.244-.024a.557.557 0 0 1 .465.253l1.5 2.239a6.8 6.8 0 0 0-.154-.831l-.639-2.641a.669.669 0 0 1 .158-.63c.042-.05.3-.379 1.466-1.98-1.103.891-1.926 1.545-2.021 1.631a.609.609 0 0 1-.422.166c-.32-.036-3.016-.4-3.3-.44a4.848 4.848 0 0 0-.435-.039l2.627 1.358.095.266a.53.53 0 0 1-.12.456l-1.29 1.61-.293.031zm3.364-4.094-.033.03.033-.03" transform="translate(-.025 -.263)" style="fill:#434244"/>
            <path data-name="Path 47742" d="M21.212 28.892H.478A.481.481 0 0 1 0 28.41v-2.05a.481.481 0 0 1 .478-.483h20.734a.481.481 0 0 1 .478.483v2.05a.481.481 0 0 1-.478.483M.957 27.927h19.777v-1.084H.957z" transform="translate(0 -.892)" style="fill:#434244"/>
            <path data-name="Path 47743" d="M12.672 26.55H2.037a.481.481 0 0 1-.478-.483 8.75 8.75 0 0 1 8.808-8.667h2.965a.472.472 0 0 1 .351.155.481.481 0 0 1 .125.367l-.66 8.189a.48.48 0 0 1-.476.443m-10.141-.969h9.7l.583-7.223h-2.447a7.8 7.8 0 0 0-7.836 7.223" transform="translate(-.068 -.6)" style="fill:#434244"/>
            <path data-name="Path 47744" d="M20 26.331h-6.845a.476.476 0 0 1-.351-.155.483.483 0 0 1-.125-.367l1.157-14.329a.479.479 0 0 1 .476-.443h4.543a.479.479 0 0 1 .476.444l1.148 14.328a.482.482 0 0 1-.125.366.476.476 0 0 1-.351.155m-6.329-.966h5.811L18.414 12h-3.66z" transform="translate(-.551 -.381)" style="fill:#434244"/>
            <path data-name="Path 47745" d="M18.977 11.872H14.1a2.4 2.4 0 0 1-2.4-2.414V8.114a.481.481 0 0 1 .478-.483h8.712a.481.481 0 0 1 .478.483v1.344a2.4 2.4 0 0 1-2.391 2.414M12.661 8.6v.861a1.443 1.443 0 0 0 1.439 1.445h4.882a1.443 1.443 0 0 0 1.435-1.448V8.6z" transform="translate(-.509 -.263)" style="fill:#434244"/>
            <path data-name="Path 47746" d="M20.567 8.516h-8.136a1.609 1.609 0 0 1 0-3.217h8.136a1.609 1.609 0 0 1 0 3.217m-8.136-2.251a.643.643 0 0 0 0 1.286h8.136a.643.643 0 0 0 0-1.286z" transform="translate(-.471 -.183)" style="fill:#434244"/>
            <path data-name="Path 47747" d="M20.942 6.14h-8.915a.48.48 0 0 1-.458-.344l-1.036-3.478a.489.489 0 0 1 .075-.427.479.479 0 0 1 .384-.2h10.987a.483.483 0 0 1 .458.623L21.4 5.8a.48.48 0 0 1-.458.343m-8.559-.966h8.2l.749-2.513h-9.7z" transform="translate(-.457 -.058)" style="fill:#434244"/>
            <path data-name="Path 47748" d="M21.979 2.6H10.991a.479.479 0 0 1-.42-.251.49.49 0 0 1 .016-.492L11.624.222a.48.48 0 0 1 .4-.222h8.915a.477.477 0 0 1 .4.222l1.043 1.638a.486.486 0 0 1 .017.492.479.479 0 0 1-.42.251m-10.115-.965h9.242l-.425-.672h-8.392z" transform="translate(-.457)" style="fill:#434244"/>
            <path data-name="Path 47749" d="M18.2 6.14h-3.111a.479.479 0 0 1-.474-.425L14.2 2.237a.48.48 0 0 1 .474-.541h3.939a.48.48 0 0 1 .474.541l-.414 3.479a.48.48 0 0 1-.474.425m-2.687-.966h2.262l.3-2.513h-2.859z" transform="translate(-.617 -.058)" style="fill:#434244"/>
        </g>
    </g>
</svg>
