<svg xmlns="http://www.w3.org/2000/svg" width="22" height="22" viewBox="0 0 22 22">
    <defs>
        <clipPath id="rofx7iqiba">
            <path data-name="Rectangle 2404" style="fill:#434244" d="M0 0h22v22H0z"/>
        </clipPath>
    </defs>
    <g data-name="APIS submission icon" style="opacity:.6">
        <g data-name="Group 4351" style="clip-path:url(#rofx7iqiba)">
            <path data-name="Path 47535" d="M11 22a11 11 0 1 1 11-11 11.013 11.013 0 0 1-11 11m0-20.5a9.5 9.5 0 1 0 9.5 9.5A9.509 9.509 0 0 0 11 1.5" style="fill:#434244"/>
            <path data-name="Path 47536" d="M11 4.562a1.334 1.334 0 1 0 1.333 1.333A1.333 1.333 0 0 0 11 4.562" style="fill:#434244"/>
            <path data-name="Path 47537" d="M11 9.229a1 1 0 0 0-1 1v6a1 1 0 0 0 2 0v-6a1 1 0 0 0-1-1" style="fill:#434244"/>
        </g>
    </g>
</svg>
