<svg xmlns="http://www.w3.org/2000/svg" width="16" height="15" viewBox="0 0 16 15">
    <path data-name="Path 47480" d="M15.517 7.987 4.207 6.523a.936.936 0 0 1-.692-.445l-2.6-4.464a.108.108 0 0 1 .119-.156c.293.046.8.126 1.089.175a.273.273 0 0 1 .15.076c.867.872 2.591 2.731 2.591 2.731l3.544.46.15.5c.039.12.121.172.222.139.12-.041.12-.127.09-.221l-.056-.181L8.7 4.8l-.269-.885v-.028L8.1 2.863l-.038-.121-.225-.712L7.25.12A.1.1 0 0 1 7.377 0l1 .28a.1.1 0 0 1 .058.041c.15.243 1.149 1.866 1.665 2.709l1.76 2.87a.647.647 0 0 0 .041.067.173.173 0 0 0 .178.076l-.265-.7 4.082.528a1.112 1.112 0 0 1 .989 1.249 1.164 1.164 0 0 1-1.368.869" transform="translate(-.9)" style="fill:#fff"/>
    <path data-name="Line 794" transform="translate(1 14)" style="fill:none;stroke:#fff;stroke-linecap:round;stroke-width:2px" d="M0 0h14"/>
</svg>
