<svg xmlns="http://www.w3.org/2000/svg" width="16.212" height="16.079" viewBox="0 0 16.212 16.079">
    <path data-name="Path 722" d="M137.53 248.281a3.909 3.909 0 0 1-2.769-6.671l2.769-2.762a.652.652 0 0 1 .919.919l-2.762 2.769a2.606 2.606 0 0 0 0 3.681 2.665 2.665 0 0 0 3.681 0l2.769-2.73a.652.652 0 0 1 .919.919l-2.762 2.769a3.909 3.909 0 0 1-2.762 1.108z" transform="translate(-133.618 -232.203)" style="fill:#9263cd"/>
    <path data-name="Path 723" d="M302.3 74.481a.652.652 0 0 1-.463-1.114l3.258-3.225a2.606 2.606 0 0 0 0-3.681 2.665 2.665 0 0 0-3.681 0l-3.225 3.258a.654.654 0 1 1-.925-.925l3.258-3.225a3.911 3.911 0 0 1 5.531 5.531l-3.225 3.225a.652.652 0 0 1-.528.156z" transform="translate(-290.99 -64.423)" style="fill:#9263cd"/>
    <path data-name="Path 724" d="M258.936 194.8a.649.649 0 0 1-.463-1.108l5.527-5.531a.661.661 0 0 1 .951.919l-5.564 5.564a.652.652 0 0 1-.456.156z" transform="translate(-253.643 -183.36)" style="fill:#9263cd"/>
</svg>
