<svg xmlns="http://www.w3.org/2000/svg" width="23.052" height="22.864" viewBox="0 0 23.052 22.864">
    <g data-name="Icon ionic-ios-information-circle-outline">
        <path data-name="Path 35148" d="M113.466 33.584a.507.507 0 0 0-.285.127l-3.819 3.423a.508.508 0 0 0-.166.38V55.39a.507.507 0 0 0 .507.507h16.227a.507.507 0 0 0 .507-.507v-3.407a.507.507 0 1 0-1.014 0v2.9h-15.214V37.736l3.28-2.94v2.845h-2.076a.507.507 0 1 0 0 1.014H114a.507.507 0 0 0 .507-.507V34.6h10.919v6.419c-.271-.039.487-.017 1.058 0l-.044-6.926a.507.507 0 0 0-.507-.507h-12.412a.485.485 0 0 0-.056 0z" transform="translate(-108.92 -33.308)" style="fill:#fff;stroke:#fff;stroke-width:.55px"/>
        <path data-name="Path 35146" d="M221.537 213.409a.528.528 0 0 1 0 .586c-.076.114-.215.3-.413.541a9.692 9.692 0 0 1-1.135 1.152 5.943 5.943 0 0 1-8.347 0 9.7 9.7 0 0 1-1.135-1.152 6.776 6.776 0 0 1-.413-.541.528.528 0 0 1 0-.586 6.79 6.79 0 0 1 .413-.54 9.706 9.706 0 0 1 1.135-1.152 5.943 5.943 0 0 1 8.347 0 9.693 9.693 0 0 1 1.135 1.152c.198.238.337.426.413.54zm-1.225.136a8.663 8.663 0 0 0-1.011-1.027 4.9 4.9 0 0 0-6.972 0 8.656 8.656 0 0 0-1.011 1.027c-.047.056-.09.109-.128.157l.128.157a8.66 8.66 0 0 0 1.011 1.027 4.9 4.9 0 0 0 6.972 0 8.655 8.655 0 0 0 1.011-1.027c.047-.056.089-.109.128-.157-.04-.049-.081-.102-.128-.157z" transform="translate(-198.862 -202.333)" style="fill:#fff;stroke:#fff;stroke-width:.55px"/>
        <path data-name="Path 35147" d="M306.5 258.255a1.585 1.585 0 1 1-1.585-1.585 1.584 1.584 0 0 1 1.585 1.585zm-1.056 0a.528.528 0 1 0-.528.528.528.528 0 0 0 .527-.528z" transform="translate(-287.962 -246.886)" style="fill:#fff;stroke:#fff;stroke-width:.55px"/>
    </g>
</svg>
