<svg xmlns="http://www.w3.org/2000/svg" width="18" height="18" viewBox="0 0 18 18">
    <g data-name="Group 1555">
        <g data-name="Group 726">
            <path data-name="Path 490" d="M115.936 29.574h-3.273v-1.636h-1.636v4.909h1.636v-1.636h1.637V44.3H99.572V31.211h.818v-1.637h-2.454v16.364h18z" transform="translate(-97.936 -27.938)" style="fill:#8ca4c9"/>
            <path data-name="Path 491" d="M191.16 27.938h-1.56v4.686h1.562v-1.562h7.029V29.5h-7.031z" transform="translate(-186.176 -27.938)" style="fill:#8ca4c9"/>
            <path data-name="Path 492" d="M281.25 211.25h1.562v1.562h-1.562z" transform="translate(-274.675 -204.675)" style="fill:#8ca4c9"/>
            <path data-name="Path 493" d="M372.91 211.25h1.562v1.562h-1.562z" transform="translate(-363.047 -204.675)" style="fill:#8ca4c9"/>
            <path data-name="Path 494" d="M464.57 211.25h1.562v1.562h-1.562z" transform="translate(-451.419 -204.675)" style="fill:#8ca4c9"/>
            <path data-name="Path 495" d="M189.6 302.91h1.562v1.562H189.6z" transform="translate(-186.312 -293.047)" style="fill:#8ca4c9"/>
            <path data-name="Path 496" d="M281.25 302.91h1.562v1.562h-1.562z" transform="translate(-274.675 -293.047)" style="fill:#8ca4c9"/>
            <path data-name="Path 497" d="M372.91 302.91h1.562v1.562h-1.562z" transform="translate(-363.047 -293.047)" style="fill:#8ca4c9"/>
            <path data-name="Path 498" d="M464.57 302.91h1.562v1.562h-1.562z" transform="translate(-451.419 -293.047)" style="fill:#8ca4c9"/>
            <path data-name="Path 499" d="M189.6 394.57h1.562v1.562H189.6z" transform="translate(-186.312 -381.419)" style="fill:#8ca4c9"/>
            <path data-name="Path 500" d="M281.25 394.57h1.562v1.562h-1.562z" transform="translate(-274.675 -381.419)" style="fill:#8ca4c9"/>
            <path data-name="Path 501" d="M372.91 394.57h1.562v1.562h-1.562z" transform="translate(-363.047 -381.419)" style="fill:#8ca4c9"/>
            <path data-name="Path 502" d="M464.57 394.57h1.562v1.562h-1.562z" transform="translate(-451.419 -381.419)" style="fill:#8ca4c9"/>
        </g>
    </g>
</svg>
