<svg data-name="Group 4425" xmlns="http://www.w3.org/2000/svg" width="44" height="22" viewBox="0 0 44 22">
    <defs>
        <clipPath id="ljpn9u1gaa">
            <path data-name="Rectangle 2462" style="fill:#9263cd" d="M0 0h44v22H0z"/>
        </clipPath>
    </defs>
    <g data-name="Group 4424" style="clip-path:url(#ljpn9u1gaa)">
        <path data-name="Path 47636" d="M37.977 20.8c.011-.226-.079-.33-.316-.4a53.612 53.612 0 0 0-10.925-2.049 52.875 52.875 0 0 0-13.724.547c-2.257.4-4.481.986-6.715 1.512-.125.021-.294.153-.3.236-.023.433-.011.865-.011 1.358a60.213 60.213 0 0 1 32-.052c0-.41-.023-.781 0-1.151m4.666-10.6c-1.5-1.363-3.033-2.692-4.544-4.032a24.1 24.1 0 0 0-23.562-4.987A24.443 24.443 0 0 0 5.7 6.349c-1.5 1.363-3.057 2.658-4.533 4.043a3.7 3.7 0 0 0 .807 5.964c.612.34 1.223.691 1.846 1a.833.833 0 0 0 .6.057 55.7 55.7 0 0 1 14.036-2.68 57.651 57.651 0 0 1 11.188.4 56 56 0 0 1 9.9 2.294c.127.035.3.092.4.035a17.925 17.925 0 0 0 2.756-1.629 3.651 3.651 0 0 0-.058-5.633m-14.67-3.453a5.817 5.817 0 0 1-1.1.307 3.179 3.179 0 0 1-.38.988 3.517 3.517 0 0 1-1 .545c.139.636-.2 1.045-.957 1.055a10.79 10.79 0 0 1-1.246 0 .508.508 0 0 0-.6.387 1.966 1.966 0 0 1-.276.534.317.317 0 0 1-.566.023 1.262 1.262 0 0 1-.276-.477c-.081-.432-.358-.5-.739-.467s-.749.013-1.118 0c-.762-.01-1.085-.408-.935-1.146-1.361-.216-1.707-.545-1.522-1.511-.162 0-.312.012-.461 0a1.41 1.41 0 0 1-1.177-.6.843.843 0 0 1-.127-.92.827.827 0 0 1 .8-.4c1.349.011 2.7.011 4.037.011h.471c.138-.42.242-.783.392-1.135a.806.806 0 0 1 .773-.511.786.786 0 0 1 .761.522 2.6 2.6 0 0 1 .265.761c.035.329.2.363.473.363 1.35-.011 2.7 0 4.049 0 .576 0 .888.159 1 .534a.971.971 0 0 1-.542 1.136" style="fill:#9263cd"/>
    </g>
</svg>
