<svg xmlns="http://www.w3.org/2000/svg" width="27.786" height="21.603" viewBox="0 0 27.786 21.603">
    <g data-name="Group 1139">
        <path data-name="Path 721" d="m149.472 14.173-4.288-4.288a.985.985 0 0 0-.721-.3h-9.784a1.631 1.631 0 0 0-1.629 1.629V29.56a1.636 1.636 0 0 0 1.629 1.629h13.462a1.631 1.631 0 0 0 1.629-1.629V14.894a.986.986 0 0 0-.3-.721zM141.5 25.691h4.59a.123.123 0 0 1 .13.113v.781a.123.123 0 0 1-.13.113h-4.59a.123.123 0 0 1-.13-.113V25.8a.123.123 0 0 1 .13-.109zm-4.135-.061.679.789 1.663-1.7a.214.214 0 0 1 .3.006l.443.462a.218.218 0 0 1-.006.3L138.4 27.55a.49.49 0 0 1-.784-.021l-1.055-1.2a.215.215 0 0 1 .022-.3l.484-.419a.215.215 0 0 1 .3.022zm4.135-4.47h4.59a.123.123 0 0 1 .13.113v.781a.123.123 0 0 1-.13.113h-4.59a.123.123 0 0 1-.13-.113v-.781a.123.123 0 0 1 .13-.113zm-4.135-.061.679.788 1.663-1.7a.214.214 0 0 1 .3.006l.443.462a.218.218 0 0 1-.006.3l-2.054 2.06a.49.49 0 0 1-.784-.021l-1.055-1.2a.215.215 0 0 1 .022-.3l.484-.419a.215.215 0 0 1 .3.022zm4.135-4.126h4.59a.123.123 0 0 1 .13.113v.781a.123.123 0 0 1-.13.113h-4.59a.123.123 0 0 1-.13-.113v-.781a.123.123 0 0 1 .13-.113zm-4.135-.061.679.788 1.666-1.7a.213.213 0 0 1 .3.006l.444.462a.218.218 0 0 1-.006.3l-2.054 2.06a.49.49 0 0 1-.783-.021l-1.055-1.2a.215.215 0 0 1 .022-.3l.484-.419a.209.209 0 0 1 .157-.052.207.207 0 0 1 .147.074zm11.046 12.648a.27.27 0 0 1-.269.269H134.68a.266.266 0 0 1-.269-.269V11.215a.271.271 0 0 1 .269-.269h9.574v2.724a1.436 1.436 0 0 0 1.433 1.434h2.724V29.56z" transform="translate(-121.984 -9.586)" style="fill:#5a2f80"/>
        <g data-name="Rectangle 1595" style="fill:#fff;stroke:#fff">
            <path style="stroke:none" d="M0 0h3v19H0z" transform="translate(10 1.25)"/>
            <path style="fill:none" d="M.5.5h2v18h-2z" transform="translate(10 1.25)"/>
        </g>
        <path data-name="Path 33877" d="M.406 61.9h12.188c.224 0 .406-.392.406-.875s-.182-.875-.406-.875H.406c-.224 0-.406.392-.406.875s.182.875.406.875z" transform="translate(0 -57.152)" style="fill:#5a2f80"/>
        <path data-name="Path 33878" d="M8.719 180.455H.281c-.155 0-.281.392-.281.875s.126.875.281.875h8.438c.155 0 .281-.392.281-.875s-.126-.875-.281-.875z" transform="translate(4 -170.184)" style="fill:#5a2f80"/>
        <path data-name="Path 33879" d="M4.844 300.758H.156c-.086 0-.156.392-.156.875s.07.875.156.875h4.688c.086 0 .156-.392.156-.875s-.07-.875-.156-.875z" transform="translate(8 -283.214)" style="fill:#5a2f80"/>
    </g>
</svg>
