<svg xmlns="http://www.w3.org/2000/svg" width="23.152" height="23.152" viewBox="0 0 23.152 23.152">
    <g data-name="Icon ionic-md-close-circle-outline">
        <path data-name="Path 34726" d="M7.935 1.6a6.33 6.33 0 1 1-4.479 1.856A6.307 6.307 0 0 1 7.935 1.6m0-1.6a7.935 7.935 0 1 0 7.935 7.935A7.934 7.934 0 0 0 7.935 0z" transform="rotate(45 5.36 14.15)" style="fill:#fff;stroke:#a37dd6;stroke-width:.5px"/>
        <path data-name="Path 34727" d="m7.935 6.825-1.11 1.11-2.857-2.857L1.11 7.935 0 6.825l2.858-2.857L0 1.11 1.11 0l2.858 2.858L6.825 0l1.11 1.11-2.857 2.858z" transform="rotate(45 -1.412 16.956)" style="fill:#fff;stroke:#a37dd6;stroke-width:.5px"/>
    </g>
</svg>
