<svg xmlns="http://www.w3.org/2000/svg" width="44" height="44" viewBox="0 0 44 44">
    <defs>
        <clipPath id="r95bdj622a">
            <path data-name="Rectangle 2119" style="fill:none" d="M0 0h44v44H0z"/>
        </clipPath>
    </defs>
    <g data-name="Group 3778">
        <g data-name="Group 3776" style="clip-path:url(#r95bdj622a)">
            <path data-name="Path 35064" d="M43.994 0 0 43.994.006 44h15.618a3.2 3.2 0 0 0 2.264-.939l25.168-25.168a3.2 3.2 0 0 0 .939-2.264z" transform="translate(.002)" style="fill:#c90000"/>
            <path data-name="Path 35065" d="M9.778 23.456a1.951 1.951 0 0 1-1.439.614 1.98 1.98 0 0 1-1.424-.614 2.03 2.03 0 0 1 .865-3.379 1.811 1.811 0 0 1 .968-.02l-.2.739a1.044 1.044 0 0 0-.581 0 1.252 1.252 0 0 0-.53.321 1.23 1.23 0 0 0-.394.9 1.393 1.393 0 0 0 1.3 1.3 1.215 1.215 0 0 0 .9-.4 1.232 1.232 0 0 0 .325-.53 1.009 1.009 0 0 0 0-.576l.742-.2a1.841 1.841 0 0 1-.02.966 1.982 1.982 0 0 1-.515.867" transform="translate(5.25 16.667)" style="fill:#fff"/>
            <path data-name="Path 35066" d="M11.894 20.507a1.975 1.975 0 0 1-.6 1.43 2 2 0 0 1-2.858-.005 2.022 2.022 0 1 1 2.858-2.86 1.959 1.959 0 0 1 .6 1.436m-2.019 1.277a1.255 1.255 0 0 0 .873-2.169 1.24 1.24 0 0 0-.9-.394 1.29 1.29 0 0 0-1.267 1.267 1.342 1.342 0 0 0 1.3 1.3" transform="translate(6.528 15.393)" style="fill:#fff"/>
            <path data-name="Path 35067" d="m11.871 16.37 2.754 2.754-.539.539-1.786-1.786.5 2.053-.064.062-2.05-.5 1.782 1.782-.543.543-2.749-2.752.559-.559 2.092.512-.515-2.088z" transform="translate(7.649 13.642)" style="fill:#fff"/>
            <path data-name="Rectangle 2118" transform="rotate(-45 45.626 -9.43)" style="fill:#fff" d="M0 0h.767v3.894H0z"/>
            <path data-name="Path 35068" d="m13.093 14.894.543-.543 2.754 2.754-.412.412-2.864-.5L14.8 18.7l-.543.543-2.757-2.756.413-.413 2.86.5z" transform="translate(9.585 11.96)" style="fill:#fff"/>
            <path data-name="Path 35069" d="m16.626 13.545.213.213a1.794 1.794 0 0 1 .578 1.333 1.9 1.9 0 0 1-.609 1.342 2.042 2.042 0 0 1-1.472.642 2.044 2.044 0 0 1-2.036-2.029 1.969 1.969 0 0 1 .611-1.447 2.059 2.059 0 0 1 .88-.53 1.85 1.85 0 0 1 .962-.029l-.2.733a1.037 1.037 0 0 0-.572.02 1.3 1.3 0 0 0-.548.337 1.232 1.232 0 0 0-.39.9 1.265 1.265 0 0 0 .4.906 1.222 1.222 0 0 0 .9.385 1.309 1.309 0 0 0 .937-.429 1.27 1.27 0 0 0 .381-.66.982.982 0 0 0-.1-.666l-.834.834-.48-.48z" transform="translate(11.085 10.826)" style="fill:#fff"/>
            <path data-name="Path 35070" d="M18.732 14.353a1.738 1.738 0 0 1-.871.506 1.384 1.384 0 0 1-.891-.1l.192-.735a.877.877 0 0 0 1.054-.213.763.763 0 0 0 .251-.418.367.367 0 0 0-.458-.411 2.806 2.806 0 0 0-.638.29 4.184 4.184 0 0 1-.423.2 1.881 1.881 0 0 1-.4.108.853.853 0 0 1-.429-.038 1.077 1.077 0 0 1-.4-.264 1.047 1.047 0 0 1-.33-.862 1.368 1.368 0 0 1 .418-.862 1.51 1.51 0 0 1 .75-.425 1.559 1.559 0 0 1 .851.061l-.192.719a.78.78 0 0 0-.882.174.586.586 0 0 0-.189.341.345.345 0 0 0 .1.3.351.351 0 0 0 .319.1 2.113 2.113 0 0 0 .59-.24l.251-.13c.059-.03.139-.064.244-.11a1.538 1.538 0 0 1 .258-.088 1.782 1.782 0 0 1 .246-.033.818.818 0 0 1 .257.017 1.083 1.083 0 0 1 .242.1 1.11 1.11 0 0 1 .247.189 1.048 1.048 0 0 1 .33.884 1.582 1.582 0 0 1-.5.946" transform="translate(12.822 9.244)" style="fill:#fff"/>
            <path data-name="Path 35071" d="M20.822 11.578a2.047 2.047 0 1 1-.6-1.436 1.966 1.966 0 0 1 .6 1.436M18.8 12.856a1.257 1.257 0 0 0 .874-2.169 1.243 1.243 0 0 0-.9-.394 1.29 1.29 0 0 0-1.267 1.267 1.342 1.342 0 0 0 1.3 1.3" transform="translate(13.968 7.952)" style="fill:#fff"/>
            <path data-name="Path 35072" d="M22.522 9.879a2.047 2.047 0 1 1-.6-1.436 1.966 1.966 0 0 1 .6 1.436M20.5 11.157a1.257 1.257 0 0 0 .875-2.169 1.243 1.243 0 0 0-.9-.394 1.29 1.29 0 0 0-1.267 1.267 1.346 1.346 0 0 0 1.3 1.3" transform="translate(15.385 6.537)" style="fill:#fff"/>
            <path data-name="Path 35073" d="m21.4 6.59.543-.543L24.694 8.8l-.412.413-2.864-.5 1.682 1.681-.543.543L19.8 8.183l.413-.413 2.86.5z" transform="translate(16.506 5.039)" style="fill:#fff"/>
        </g>
    </g>
</svg>
