<svg xmlns="http://www.w3.org/2000/svg" width="22" height="22" viewBox="0 0 22 22">
    <defs>
        <clipPath id="r9twopv9ha">
            <path data-name="Rectangle 2407" style="fill:#434244" d="M0 0h22v22H0z"/>
        </clipPath>
    </defs>
    <g data-name="content management icon" style="opacity:.6">
        <g data-name="Group 4357" style="clip-path:url(#r9twopv9ha)">
            <path data-name="Path 47542" d="M21.3 0H8.938A.873.873 0 0 0 8 .78V2.5a.7.7 0 1 0 1.4 0V1.4h11.2v15.2h-4.4a.7.7 0 1 0 0 1.4h5.06c.45 0 .74-.52.74-.99V.68a.712.712 0 0 0-.7-.68" style="fill:#434244"/>
            <path data-name="Path 47543" d="M13.3 4H.941A.872.872 0 0 0 0 4.783v16.23A1.038 1.038 0 0 0 .941 22h12.314c.451 0 .746-.514.746-.987V4.783a.8.8 0 0 0 0-.1A.716.716 0 0 0 13.3 4m-.7 16.6H1.4V5.4h11.2z" style="fill:#434244"/>
            <path data-name="Path 47544" d="M3 9.7h8a.7.7 0 1 0 0-1.4H3a.7.7 0 0 0 0 1.4" style="fill:#434244"/>
            <path data-name="Path 47545" d="M3 13.7h8a.7.7 0 1 0 0-1.4H3a.7.7 0 0 0 0 1.4" style="fill:#434244"/>
            <path data-name="Path 47546" d="M3 17.7h8a.7.7 0 1 0 0-1.4H3a.7.7 0 0 0 0 1.4" style="fill:#434244"/>
        </g>
    </g>
</svg>
