<svg xmlns="http://www.w3.org/2000/svg" width="22" height="22" viewBox="0 0 22 22">
    <defs>
        <clipPath id="3zu66hwh4a">
            <path data-name="Rectangle 2583" style="fill:#434244" d="M0 0h22v22H0z"/>
        </clipPath>
    </defs>
    <g data-name="Countries icon" style="opacity:.6">
        <g data-name="Group 4645" style="clip-path:url(#3zu66hwh4a)">
            <path data-name="Path 47750" d="M18.82 18.724a10.643 10.643 0 0 0 2.948-5.477c0-.017.008-.032.011-.049.049-.25.085-.505.117-.761.023-.179.045-.357.059-.538s.02-.354.026-.532c0-.123.018-.242.018-.366 0-.1-.012-.19-.014-.285 0-.112.007-.221 0-.335A11.012 11.012 0 0 0 14.369.533L14.132.46a11.2 11.2 0 0 0-2.387-.421c-.09-.006-.174-.021-.265-.025s-.158 0-.238 0S11.08 0 11 0s-.152.01-.228.012a10.416 10.416 0 0 0-6.656 2.422c-.087.069-.17.141-.255.213s-.188.151-.278.235c-.063.057-.115.12-.175.178-.146.14-.286.284-.424.432s-.289.308-.424.467c-.046.055-.089.112-.133.167a10.413 10.413 0 0 0-2.19 4.611 1.923 1.923 0 0 0-.017.073c-.048.247-.084.5-.115.752-.023.176-.045.352-.059.531s-.021.359-.027.541c0 .122-.018.241-.018.364 0 .089.011.173.014.261 0 .112-.008.219 0 .332a10.85 10.85 0 0 0 8.637 10.15c.282.061.571.106.862.145.06.008.118.02.179.028.348.041.7.063 1.055.072.055 0 .1.01.159.011h.244a10.366 10.366 0 0 0 7.194-2.8c.138-.127.257-.263.388-.392l.087-.088M11.338 15.9a.927.927 0 0 0-.338-.4 3.6 3.6 0 0 1-1.12-1.4 1.576 1.576 0 0 1 .1-1.33l.092-.224c.151-.348.168-.539.04-.706a2.041 2.041 0 0 1 2.221.337l.327.255c.24.185.481.37.7.575a4.708 4.708 0 0 0 1.432.893 6.33 6.33 0 0 1 .788.415l.124.112a2.243 2.243 0 0 0-.556 1.457.619.619 0 0 1-.494.635 1.028 1.028 0 0 0-.741.811 4.518 4.518 0 0 1-.972 1.906 2.526 2.526 0 0 0-.7 1.683 3.117 3.117 0 0 0-.4.054 2.107 2.107 0 0 1-.053-.452 4.908 4.908 0 0 1 .046-.973 6.9 6.9 0 0 0-.5-3.633m-.508 5.116h-.057a10.541 10.541 0 0 1-2.858-.5 9.312 9.312 0 0 1-2.565-1.281 9.782 9.782 0 0 1-4.232-6.833 9.782 9.782 0 0 1 2.631-8.275.9.9 0 0 1 .241-.208.882.882 0 0 1 .324-.091.122.122 0 0 1 .044.006s.074.047.112.366c.008.066.013.131.018.2.007.084.015.168.025.252a1.446 1.446 0 0 1-.233 1.048 2.244 2.244 0 0 0-.2.408l-.04.1a1.284 1.284 0 0 0 .319 1.559 2.18 2.18 0 0 1 .529.9 14.52 14.52 0 0 0 .664 1.45 1.759 1.759 0 0 0 1.043.846c.118.039.235.086.35.131a2.855 2.855 0 0 0 .993.264c.065.053.165.144.282.252a9.857 9.857 0 0 0 .805.677l-.051.259c-.073.351-.142.69-.185 1.03a1.789 1.789 0 0 0 .33 1.233l.117.176a4.519 4.519 0 0 0 1.188 1.356 5.834 5.834 0 0 1 .4 3.061 4.382 4.382 0 0 0 .008 1.6M8.817 1.5a.38.38 0 0 1-.21.12c-.3-.009-.594-.029-.889-.053a8.91 8.91 0 0 1 1.343-.357c-.082.09-.161.19-.244.29m.972.432a1.506 1.506 0 0 1 1.015-.6 5.036 5.036 0 0 1 1.223-.241 5.005 5.005 0 0 1 1 .134l.312.063a3 3 0 0 1 .3.074 1.161 1.161 0 0 1-.251.143c-.338.128-.683.236-1.029.345-.295.092-.589.184-.88.289a4.538 4.538 0 0 0-.991.484 1.227 1.227 0 0 0-.6.827 1.217 1.217 0 0 0 .309.96 3.028 3.028 0 0 0 .764.664.784.784 0 0 0 1.158-.237 4.246 4.246 0 0 0 .251-.374l.187-.3c.063-.1.126-.206.193-.308.277-.415.4-.438.43-.438.022 0 .153.024.424.464a.894.894 0 0 1 .2.664c-.044.16-.212.312-.513.464a2.062 2.062 0 0 1-.4.163 3.021 3.021 0 0 0-1.667 1.155 4.2 4.2 0 0 0-.4.728 4.031 4.031 0 0 1-.672 1.123 1.316 1.316 0 0 0-1.569-.311 4.51 4.51 0 0 0-.943.629 1.159 1.159 0 0 0-.306 1.011 1.375 1.375 0 0 0 .322.786 4.139 4.139 0 0 1-.708-.282l-.2-.09a.939.939 0 0 1-.378-.4 11.249 11.249 0 0 1-.605-1.4 2.539 2.539 0 0 0-.627-1c-.274-.263-.278-.293-.1-.659l.032-.071a.789.789 0 0 1 .067-.132A3.059 3.059 0 0 0 5.424 3.8a1.132 1.132 0 0 0-.431-.769l.122-.083c.156-.108.312-.216.457-.337a1.036 1.036 0 0 1 .9-.183q.879.128 1.762.226a1.474 1.474 0 0 0 1.554-.725m2.087 1.426-.115.16a2.75 2.75 0 0 0-.189.3l-.087.148a1.98 1.98 0 0 1-.125.185A2.2 2.2 0 0 1 11.181 4c-.273-.256-.268-.374-.265-.4.009-.055.1-.15.335-.25.285-.124.58-.235.879-.337-.091.112-.173.228-.255.342m1.506 17.066a6.2 6.2 0 0 1 .538-.8 4.682 4.682 0 0 0 .941-1.911.345.345 0 0 1 .262-.3 1.588 1.588 0 0 0 1.055-1.55 1.4 1.4 0 0 1 .292-.767 1.224 1.224 0 0 0 .291-.9 1.236 1.236 0 0 0-.6-.75 4.209 4.209 0 0 0-.85-.443 4.7 4.7 0 0 1-1.44-.91 14 14 0 0 0-1.3-.985 2.676 2.676 0 0 0-1.549-.494 3.063 3.063 0 0 0-.951.157 8.27 8.27 0 0 1-1.7-1.236.5.5 0 0 1-.008-.327 3.561 3.561 0 0 1 .462-.335c.34-.209.4-.2.715.157a.7.7 0 0 0 .325.26.947.947 0 0 0 .741.007.811.811 0 0 0 .357-.551.777.777 0 0 0 .021-.321.5.5 0 0 1 0-.1.68.68 0 0 1 .1-.277c.146-.18.3-.354.453-.528s.322-.366.476-.556a2.269 2.269 0 0 1 1.131-.816 3.943 3.943 0 0 0 1.076-.537 1.361 1.361 0 0 0 .516-1.708 4.334 4.334 0 0 0-.769-1.16 1.173 1.173 0 0 0-.292-.236 2.608 2.608 0 0 0 1.077-.765l.348.154c.412.179.412.179.458.637l.027.254a2.019 2.019 0 0 0 .134.539.831.831 0 0 0 1.4.249c.083-.089.164-.177.251-.275l.144.135c.258.237.507.465.743.71A9.789 9.789 0 0 1 20.207 7.1c.024.059.024.059-.019.124-.2.294-.381.6-.561.908l-.064.11a2.617 2.617 0 0 0-.116 2.328 7.345 7.345 0 0 0 .667 1.383 2.437 2.437 0 0 0 .752.694 9.939 9.939 0 0 1-6.516 7.766c-.3.114-.6.2-.926.289l-.151.043a.7.7 0 0 1 .109-.321m7.256-12.057a9.3 9.3 0 0 1 .352 3.1 2.625 2.625 0 0 1-.295-.459 2.458 2.458 0 0 1-.057-2.645" style="fill:#434244"/>
        </g>
    </g>
</svg>
