<svg data-name="Group 4427" xmlns="http://www.w3.org/2000/svg" width="44" height="22" viewBox="0 0 44 22">
    <defs>
        <clipPath id="l80lnmmq9a">
            <path data-name="Rectangle 2463" style="fill:#9263cd" d="M0 0h44v22H0z"/>
        </clipPath>
    </defs>
    <g data-name="Group 4426" style="clip-path:url(#l80lnmmq9a)">
        <path data-name="Path 47638" d="M30.113 0H13.891A11.647 11.647 0 0 0 2.882 8.147L.059 16.8A1.182 1.182 0 0 0 .8 18.29l2.076.675a61.78 61.78 0 0 0 38.253 0l2.071-.675a1.181 1.181 0 0 0 .74-1.49l-2.816-8.647A11.646 11.646 0 0 0 30.113 0m-2.029 12.837a5.973 5.973 0 0 1-1.116.324 3.362 3.362 0 0 1-.385 1.022 3.548 3.548 0 0 1-1.014.574c.132.658-.2 1.086-.973 1.1a8.518 8.518 0 0 1-1.268 0 .529.529 0 0 0-.609.407 2.314 2.314 0 0 1-.273.553.323.323 0 0 1-.578.032 1.538 1.538 0 0 1-.284-.5c-.081-.449-.355-.522-.741-.491a8.266 8.266 0 0 1-1.135 0c-.771-.01-1.106-.417-.954-1.19-1.379-.229-1.724-.574-1.541-1.576-.162 0-.314.011-.466 0a1.46 1.46 0 0 1-1.2-.626.9.9 0 0 1-.122-.96.821.821 0 0 1 .8-.417c1.369.01 2.738.01 4.1.01h.475c.142-.438.243-.814.4-1.19a.84.84 0 0 1 .791-.532.807.807 0 0 1 .771.543 2.765 2.765 0 0 1 .264.8c.04.334.2.376.486.376 1.359-.01 2.728 0 4.1 0 .589 0 .9.167 1.025.553a1.04 1.04 0 0 1-.548 1.19" style="fill:#9263cd"/>
    </g>
</svg>
