<svg xmlns="http://www.w3.org/2000/svg" width="16" height="15" viewBox="0 0 16 15">
    <g data-name="DEP - Takeoof Plane icon">
        <path data-name="Path 47475" d="m16.308 2.343-2.489 1.412L7.71 7.232l-1.13.643-.2.116A.2.2 0 0 1 6.17 8Q3.592 6.788 1.014 5.587C.977 5.57.945 5.549.9 5.527c.382-.206.755-.408 1.131-.6A.269.269 0 0 1 2.2 4.9l3.672.66a.257.257 0 0 0 .176-.032q1.344-.79 2.682-1.59a.134.134 0 0 1 .178.006c.14.113.288.218.433.324.107.077.2.073.258-.016.065-.106.009-.178-.076-.24l-.161-.119-.3-.207-.78-.587-.014-.012-.009-.008-.91-.679-.108-.079-.632-.467L4.836.546a.066.066 0 0 1 .011-.114c.29-.133.658-.3.78-.357a.342.342 0 0 1 .293-.03Q7.446.7 8.969 1.351l3.2 1.371a.778.778 0 0 0 .074.032.16.16 0 0 0 .184-.042l-.716-.535L13.937.971c.253-.137.5-.279.76-.41l.493-.267a1.152 1.152 0 0 1 1.56.464 1.175 1.175 0 0 1-.444 1.587" transform="translate(-.9 -.024)" style="fill:#fff"/>
        <path data-name="Line 795" transform="translate(1 14)" style="fill:none;stroke:#fff;stroke-linecap:round;stroke-width:2px" d="M0 0h14"/>
    </g>
</svg>
