<svg data-name="Group 752" xmlns="http://www.w3.org/2000/svg" width="18.628" height="20.417" viewBox="0 0 18.628 20.417">
    <path data-name="Path 2853" d="M196.466 104.116h-.314v-5l-5.046-5.639H182.5a2.683 2.683 0 0 0-2.68 2.68v15.057a2.683 2.683 0 0 0 2.68 2.68h10.974a2.683 2.683 0 0 0 2.68-2.68v-.01h.314a1.982 1.982 0 0 0 1.98-1.98V106.1a1.982 1.982 0 0 0-1.98-1.98zm-5.007-8.328 2.626 2.935h-2.626zm3.416 15.427a1.4 1.4 0 0 1-1.4 1.4H182.5a1.4 1.4 0 0 1-1.4-1.4V96.158a1.4 1.4 0 0 1 1.4-1.4h7.684V100h4.693v4.116h-6.681a1.982 1.982 0 0 0-1.98 1.98v3.13a1.982 1.982 0 0 0 1.98 1.98h6.68zm2.294-1.99a.7.7 0 0 1-.7.7h-8.272a.7.7 0 0 1-.7-.7V106.1a.7.7 0 0 1 .7-.7h8.272a.7.7 0 0 1 .7.7z" transform="translate(-179.818 -93.478)" style="fill:#c6cee3"/>
    <path data-name="Path 2854" d="M334.622 328.769h-1.481v2.873h.885v-.869h.523c.66 0 1.127-.326 1.127-1.022a.974.974 0 0 0-1.054-.982zm-.254 1.32h-.342v-.584h.394c.217 0 .418.016.418.278.001.29-.238.306-.47.306z" transform="translate(-324.75 -315.892)" style="fill:#c6cee3"/>
    <path data-name="Path 2855" d="M386.35 328.77h-1.45v2.873h1.28a1.309 1.309 0 0 0 1.468-1.44 1.263 1.263 0 0 0-1.298-1.433zm-.221 2.137h-.346v-1.4h.282a.635.635 0 0 1 .7.684c-.005.269-.085.716-.637.716z" transform="translate(-373.673 -315.893)" style="fill:#c6cee3"/>
    <path data-name="Path 2856" d="M442.1 331.641h.885v-1.095h1.147v-.684h-1.147v-.362h1.336v-.736H442.1z" transform="translate(-427.745 -315.891)" style="fill:#c6cee3"/>
</svg>
