<svg data-name="Upload to cloud" xmlns="http://www.w3.org/2000/svg" width="104" height="88" viewBox="0 0 104 88">
    <g data-name="Rectangle 1364" style="fill:#f5f6f9;stroke:#c6d4e7;stroke-linejoin:round;stroke-dasharray:4">
        <rect width="104" height="88" rx="4" style="stroke:none"/>
        <rect x=".5" y=".5" width="103" height="87" rx="3.5" style="fill:none"/>
    </g>
    <text data-name="Drag and Drop to upload" transform="translate(20 43)" style="font-family:Lato-Regular,Lato;fill:#8ca4c9;font-size:6px"><tspan x="0" y="0">Drag and Drop to upload </tspan></text>
    <text data-name="to choose a file" transform="translate(33 78)" style="font-family:Lato-Regular,Lato;fill:#8ca4c9;font-size:6px"><tspan x="0" y="0">to choose a file</tspan></text>
    <text transform="translate(34 66)" style="fill:#9263cd;font-size:11px;font-family:Lato-Regular,Lato"><tspan x="0" y="0">Browse</tspan></text>
    <text data-name="or" transform="translate(49 52)" style="font-family:Lato-Regular,Lato;fill:#8ca4c9;font-size:6px"><tspan x="0" y="0">or </tspan></text>
    <path data-name="Icon weather-cloud-up" d="M5.568 24.619a7.911 7.911 0 0 0 2.276 5.693 7.931 7.931 0 0 0 5.568 2.539.252.252 0 0 0 .278-.282v-2.207c0-.2-.1-.315-.278-.315a5.012 5.012 0 0 1-3.57-1.693 5.323 5.323 0 0 1-1.474-3.734 5.223 5.223 0 0 1 1.376-3.585 5.369 5.369 0 0 1 3.439-1.776h.868c.213 0 .328-.1.328-.3l.1-.946a6.852 6.852 0 0 1 2.26-4.515 6.9 6.9 0 0 1 9.352 0 6.8 6.8 0 0 1 2.276 4.515l.131.946a.262.262 0 0 0 .295.3h2.637a5.463 5.463 0 0 1 5.387 5.341 5.323 5.323 0 0 1-1.474 3.734 5.041 5.041 0 0 1-3.57 1.693c-.213 0-.328.1-.328.315v2.207c0 .183.115.282.328.282a7.629 7.629 0 0 0 3.927-1.175 8.081 8.081 0 0 0 2.833-2.988 8.268 8.268 0 0 0 1.032-4.05 8 8 0 0 0-.639-3.17 8.207 8.207 0 0 0-1.736-2.606 8.118 8.118 0 0 0-2.584-1.742 7.847 7.847 0 0 0-3.145-.647h-.524a9.783 9.783 0 0 0-3.456-5.461 9.36 9.36 0 0 0-6.027-2.124 9.468 9.468 0 0 0-6.154 2.191 9.787 9.787 0 0 0-3.439 5.577 7.777 7.777 0 0 0-4.471 2.871 7.757 7.757 0 0 0-1.822 5.112zm11.366 1.046a1.548 1.548 0 0 0 .393 1.062 1.336 1.336 0 0 0 1 .382 1.486 1.486 0 0 0 1.015-.382l1.818-1.892v6.606a1.487 1.487 0 0 0 .377 1.012 1.244 1.244 0 0 0 .966.415 1.328 1.328 0 0 0 .983-.415 1.374 1.374 0 0 0 .409-1.012V24.9l1.834 1.842a1.486 1.486 0 0 0 2 0 1.36 1.36 0 0 0 .393-1.029 1.5 1.5 0 0 0-.393-1.029l-4.244-4.264a1.324 1.324 0 0 0-.983-.4 1.263 1.263 0 0 0-.966.4l-4.225 4.266a1.376 1.376 0 0 0-.377.979z" transform="translate(30.432 -.868)" style="fill:#c6d4e7"/>
</svg>
