<svg xmlns="http://www.w3.org/2000/svg" width="22" height="22" viewBox="0 0 22 22">
    <defs>
        <clipPath id="nwt2s9cuya">
            <path data-name="Rectangle 2405" style="fill:#434244" d="M0 0h22v22H0z"/>
        </clipPath>
    </defs>
    <g data-name="Executive icon" style="opacity:.6">
        <g data-name="Group 4353" style="clip-path:url(#nwt2s9cuya)">
            <path data-name="Path 47538" d="M0 11.647v-1.289c.013-.069.029-.138.039-.208.063-.46.1-.927.192-1.38A10.836 10.836 0 0 1 4.4 2.195 10.382 10.382 0 0 1 7.437.588 11.011 11.011 0 0 1 12.67.133a10.842 10.842 0 0 1 6.768 3.853 10.626 10.626 0 0 1 2.493 5.785 11.017 11.017 0 0 1-.467 4.62 10.947 10.947 0 0 1-8.547 7.435c-.421.076-.848.117-1.272.174h-1.16c-.084-.012-.168-.031-.253-.035a10.169 10.169 0 0 1-3.99-1.059 11.014 11.014 0 0 1-4.068-3.378 10.7 10.7 0 0 1-2.005-4.612C.1 12.5.055 12.07 0 11.647m1.793.345c.043-.032.082-.059.117-.09a2.855 2.855 0 0 1 2.223-.71 4.745 4.745 0 0 1 2.42 1.019 11.691 11.691 0 0 1 2.1 2.2 9.972 9.972 0 0 0 3.1 2.7 5.578 5.578 0 0 0 5.576.126 4.761 4.761 0 0 0 1.388-1.149c-.067.014-.094.018-.12.025a5.565 5.565 0 0 1-4.161-.462 9.7 9.7 0 0 1-3.369-2.9c-.674-.88-1.3-1.8-1.985-2.667a7.172 7.172 0 0 0-2.759-2.2 3.162 3.162 0 0 0-2.464-.121 3.8 3.8 0 0 0-2.068 4.233m18.409.244a4.278 4.278 0 0 1-4.156-.738 8.6 8.6 0 0 1-1.952-2.009c-.6-.847-1.139-1.733-1.737-2.579a9.654 9.654 0 0 0-2.6-2.622 4.042 4.042 0 0 0-3.639-.548 6.3 6.3 0 0 0-2.31 1.407 6.98 6.98 0 0 0-.765 1.029c.069.026.1.021.122.01a4.893 4.893 0 0 1 3.995.183 8.589 8.589 0 0 1 3.053 2.386c.726.874 1.368 1.815 2.052 2.723a8.44 8.44 0 0 0 3.05 2.679 3.554 3.554 0 0 0 3.283.1 2.983 2.983 0 0 0 1.6-2.02m-5.889 7.393c-.056-.009-.111-.02-.167-.025a8.343 8.343 0 0 1-4.04-1.485 12.991 12.991 0 0 1-2.987-2.877A7.655 7.655 0 0 0 5.084 13.3a2.313 2.313 0 0 0-1.294-.4 1.531 1.531 0 0 0-1.146 2.125A9.271 9.271 0 0 0 6.3 18.992a9.043 9.043 0 0 0 5.6 1.243 7.772 7.772 0 0 0 2.411-.6M20.116 9.2a.752.752 0 0 0-.106-.01 2.844 2.844 0 0 1-2.1-.813 9.813 9.813 0 0 1-1.361-1.653c-.5-.7-1-1.4-1.555-2.05a7.777 7.777 0 0 0-3.366-2.37 5.6 5.6 0 0 0-2.618-.275.56.56 0 0 0 .075.043 7.871 7.871 0 0 1 3.05 1.942 17.675 17.675 0 0 1 2.535 3.268 18.825 18.825 0 0 0 1.112 1.578 5.7 5.7 0 0 0 1.964 1.666 2.128 2.128 0 0 0 2.393-.242.252.252 0 0 0 .094-.189c-.028-.3-.076-.592-.117-.89m-.629-1.773.05-.064a9.228 9.228 0 0 0-3.447-4.085.114.114 0 0 0 .034.079 20.089 20.089 0 0 1 2 2.622 8.91 8.91 0 0 0 .777.969 4.926 4.926 0 0 0 .582.479" style="fill:#434244"/>
        </g>
    </g>
</svg>
