<svg xmlns="http://www.w3.org/2000/svg" width="22" height="14" viewBox="0 0 22 14">
    <path data-name="Path 708" d="M126.924 129.132a11.8 11.8 0 0 0-4.474-4.928 12.786 12.786 0 0 0-12.913 0 11.794 11.794 0 0 0-4.474 4.928.77.77 0 0 0 0 .641 11.8 11.8 0 0 0 4.474 4.928 12.786 12.786 0 0 0 12.913 0 11.794 11.794 0 0 0 4.474-4.928.77.77 0 0 0 0-.641zm-10.93 4.208a3.949 3.949 0 0 1-2.778-1.139 3.859 3.859 0 0 1 0-5.5 3.958 3.958 0 0 1 5.556 0 3.856 3.856 0 0 1 0 5.5 3.953 3.953 0 0 1-2.777 1.139z" transform="translate(-104.994 -122.452)" style="fill:#5a2f7f"/>
    <path data-name="Path 709" d="M302.16 229.83a2.33 2.33 0 1 1-2.33-2.33 2.33 2.33 0 0 1 2.33 2.33" transform="translate(-288.83 -222.83)" style="fill:#5a2f7f"/>
</svg>
