<svg data-name="Group 3863" xmlns="http://www.w3.org/2000/svg" width="14.358" height="14.72" viewBox="0 0 14.358 14.72">
    <g data-name="Group 145">
        <path data-name="Path 129" d="M10.381 1.885 7.763 2.97 4.982.489A1.564 1.564 0 0 0 3.228.131L2.336.5 4 4.521 1.318 5.636.9 4.628l-.9.378.417 1.008a2.733 2.733 0 0 0 3.838 1.551L11.5 4.57a1.8 1.8 0 0 0 1.25-1.56c0-1.115-1.192-1.619-2.365-1.124zm.746 1.783-7.25 3A1.79 1.79 0 0 1 1.89 6.45l3.383-1.4L3.6 1.022a.766.766 0 0 1 .814.145L7.5 4.124l3.257-1.347c1.066-.436 1.415.456.368.892z" transform="rotate(48 2.914 6.546)" style="fill:#9263cd"/>
        <path data-name="Rectangle 24" transform="translate(1.291 12.75)" style="fill:#9263cd" d="M0 0h12.6v.623H0z"/>
    </g>
</svg>
