<svg xmlns="http://www.w3.org/2000/svg" width="14.357" height="10.901" viewBox="0 0 14.357 10.901">
    <g data-name="Group 3864">
        <path data-name="Path 131" d="m174.91 125.135-2.872 1.191-3.052-2.723a1.716 1.716 0 0 0-1.925-.393l-.979.4 1.829 4.414-2.946 1.223-.457-1.106-.989.415.457 1.106a3 3 0 0 0 4.212 1.7l7.944-3.286a1.972 1.972 0 0 0 1.372-1.712c0-1.223-1.308-1.776-2.595-1.234zm.819 1.957-7.955 3.3a1.964 1.964 0 0 1-2.18-.245l3.712-1.531-1.84-4.424a.84.84 0 0 1 .893.16l3.393 3.244 3.573-1.478c1.17-.479 1.553.5.4.979z" transform="translate(-163.521 -123.066)" style="fill:#9263cd"/>
        <path data-name="Path 132" d="M0 0h13.826v.684H0z" transform="translate(.531 10.217)" style="fill:#9263cd"/>
    </g>
</svg>
