<svg data-name="GTM Logo Square" xmlns="http://www.w3.org/2000/svg" width="180" height="180" viewBox="0 0 180 180">
    <defs>
        <clipPath id="mn2npb2qqa">
            <path data-name="Rectangle 2052" style="fill:none" d="M0 0h180v180H0z"/>
        </clipPath>
        <clipPath id="j8jo1xpkkb">
            <path data-name="Rectangle 2431" style="fill:none" d="M0 0h174v180H0z"/>
        </clipPath>
        <clipPath id="w2zdfjhu9c">
            <path data-name="Path 47614" d="m98.55 88.5 5.4-1.445-5.132-19.132 24.205 2.614-42.717-50.379z" transform="translate(-80.306 -20.158)" style="fill:none"/>
        </clipPath>
        <clipPath id="2q5ke8qi9e">
            <path data-name="Path 47615" d="m68.1 85.173 19.653-14.36 5.129 19.131 5.4-1.446-18.243-68.34z" transform="translate(-68.102 -20.158)" style="fill:none"/>
        </clipPath>
        <clipPath id="h6ppr754qg">
            <path data-name="Rectangle 2428" style="fill:none" d="M0 0h24.455v19.344H0z"/>
        </clipPath>
        <linearGradient id="fk5gshzchd" x1="-.83" y1="2.883" x2="-.817" y2="2.883" gradientUnits="objectBoundingBox">
            <stop offset="0" stop-color="#bbc8e5"/>
            <stop offset="1" stop-color="#8c9cc0"/>
        </linearGradient>
        <linearGradient id="q48hitjm3f" x1="-.991" y1="2.159" x2="-.973" y2="2.159" gradientUnits="objectBoundingBox">
            <stop offset="0" stop-color="#fff"/>
            <stop offset="1" stop-color="#e3eafa"/>
        </linearGradient>
    </defs>
    <g data-name="Group 3664" style="clip-path:url(#mn2npb2qqa)">
        <g data-name="Group 4414">
            <g data-name="Group 4413" transform="translate(3.001)" style="clip-path:url(#j8jo1xpkkb)">
                <g data-name="Group 4403">
                    <g data-name="Group 4402" style="clip-path:url(#j8jo1xpkkb)">
                        <path data-name="Path 47612" d="M127.249 54.787a38.533 38.533 0 0 1-10.829 26.789c-.2.212-.417.426-.631.638A38.992 38.992 0 0 1 91.873 93.4a41.151 41.151 0 0 1-3.748.176 39.246 39.246 0 0 1-14.337-2.69 37.897 37.897 0 0 1-3.269-1.452 39.129 39.129 0 0 1-10.059-7.22A38.5 38.5 0 0 1 49 54.787a39.2 39.2 0 0 1 66.79-27.427 38.5 38.5 0 0 1 11.46 27.427" transform="translate(-.872 -.846)" style="fill-rule:evenodd;fill:#5a2f80"/>
                        <path data-name="Path 47613" d="M122.266 74.455 95.117 71.47l8.764 15.746-.1 3.408a36.2 36.2 0 0 1-15.314 3.013L84.389 73.6l-18.3 13.137-1.636-1.279 15.511-65.3 43.862 51.378z" transform="translate(-1.21 -.972)" style="fill:#470970;fill-rule:evenodd"/>
                    </g>
                </g>
                <g data-name="Group 4405">
                    <g data-name="Group 4404" transform="translate(78.749 19.186)" style="clip-path:url(#w2zdfjhu9c)">
                        <path data-name="Path 47634" d="m0 0 74.469.107.076 53.613-74.469-.107z" transform="rotate(-80.39 33.645 39.93)" style="fill:url(#fk5gshzchd)"/>
                    </g>
                </g>
                <g data-name="Group 4407">
                    <g data-name="Group 4406" transform="translate(66.812 19.186)" style="clip-path:url(#2q5ke8qi9e)">
                        <path data-name="Path 47635" d="m0 0 54.73.167.233 76.02-54.73-.167z" transform="rotate(-22.476 13.232 67.675)" style="fill:url(#q48hitjm3f)"/>
                    </g>
                </g>
                <g data-name="Group 4412">
                    <g data-name="Group 4411" style="clip-path:url(#j8jo1xpkkb)">
                        <path data-name="Path 47616" d="M80.033 20.158c-3.011 18.5-8.4 46.345-11.753 65.048l-.3-.182c1.905-1.372 10.565-7.767 12.3-8.947 2.212-1.567 5.241-3.705 7.46-5.263-3.085 2.332-6.618 5.028-9.713 7.333l-9.83 7.177-.379.277.084-.461c3.523-18.77 8.344-46.516 12.122-64.981" transform="translate(-1.284 -.972)" style="fill:#fff"/>
                        <g data-name="Group 4410" style="opacity:.6">
                            <g data-name="Group 4409">
                                <g data-name="Group 4408" style="clip-path:url(#h6ppr754qg)" transform="translate(97.01 66.737)">
                                    <path data-name="Path 47617" d="M104.356 88.54c-1.765-5.438-3.782-13.491-5.309-19.083l-.07-.262.271.03 12.1 1.306c1.116.13 6.549.677 7.561.848.746.108 2.267.316 3.015.424l1.506.22-1.519-.107c-1.419-.113-3.146-.22-4.552-.36-3.836-.418-14.185-1.535-18.153-1.963l.2-.233c1.482 5.635 3.748 13.559 4.947 19.178" transform="translate(-98.976 -69.196)" style="fill:#fff"/>
                                </g>
                            </g>
                        </g>
                        <path data-name="Path 47618" d="M24.588 136.226a6.306 6.306 0 0 0 1.407-.141 6.732 6.732 0 0 0 1.158-.375v-2.591H25.52a.779.779 0 0 1-.567-.2.672.672 0 0 1-.205-.5v-2.181h5.879v7.21a8.637 8.637 0 0 1-1.322.827 8.322 8.322 0 0 1-1.465.567 10.375 10.375 0 0 1-1.656.329 15.993 15.993 0 0 1-1.89.106 8.43 8.43 0 0 1-3.358-.662 8.15 8.15 0 0 1-2.673-1.828 8.46 8.46 0 0 1-1.77-2.767 9.259 9.259 0 0 1-.643-3.48 9.754 9.754 0 0 1 .613-3.511 7.775 7.775 0 0 1 4.511-4.566 9.688 9.688 0 0 1 3.614-.644 10.211 10.211 0 0 1 1.942.176 9.251 9.251 0 0 1 1.673.48 7.721 7.721 0 0 1 1.4.727 7.578 7.578 0 0 1 1.134.914l-1.112 1.746a1.237 1.237 0 0 1-.38.387.878.878 0 0 1-.481.141 1.292 1.292 0 0 1-.7-.235c-.3-.187-.587-.349-.857-.486a5.178 5.178 0 0 0-.822-.335 5.337 5.337 0 0 0-.885-.187 8.483 8.483 0 0 0-1.046-.059 4.622 4.622 0 0 0-1.939.393 4.156 4.156 0 0 0-1.471 1.108 5.09 5.09 0 0 0-.936 1.716 7.124 7.124 0 0 0-.329 2.234 7.365 7.365 0 0 0 .364 2.414 5.243 5.243 0 0 0 1 1.782 4.284 4.284 0 0 0 1.522 1.107 4.781 4.781 0 0 0 1.923.381"/>
                        <path data-name="Path 47619" d="M36.845 135.921h6.128v3.165h-9.964v-17.08h3.836z"/>
                        <path data-name="Path 47620" d="M60.241 130.54a9.458 9.458 0 0 1-.617 3.446 8.335 8.335 0 0 1-1.744 2.771 7.959 7.959 0 0 1-2.705 1.847 9.58 9.58 0 0 1-7.03 0 8.025 8.025 0 0 1-2.719-1.847 8.3 8.3 0 0 1-1.747-2.771 9.9 9.9 0 0 1 0-6.894 8.254 8.254 0 0 1 1.747-2.766 8.093 8.093 0 0 1 2.719-1.84 8.985 8.985 0 0 1 3.518-.667 8.862 8.862 0 0 1 3.513.674 8.079 8.079 0 0 1 2.705 1.845 8.293 8.293 0 0 1 1.744 2.766 9.427 9.427 0 0 1 .616 3.436m-3.925 0a7.6 7.6 0 0 0-.32-2.281 4.856 4.856 0 0 0-.913-1.717 3.935 3.935 0 0 0-1.458-1.078 4.875 4.875 0 0 0-1.964-.375 4.952 4.952 0 0 0-1.98.375 3.941 3.941 0 0 0-1.462 1.078 4.891 4.891 0 0 0-.915 1.717 8.379 8.379 0 0 0 0 4.572 4.891 4.891 0 0 0 .915 1.717 3.885 3.885 0 0 0 1.462 1.072 5.021 5.021 0 0 0 1.98.369 4.942 4.942 0 0 0 1.964-.369 3.879 3.879 0 0 0 1.458-1.072 4.857 4.857 0 0 0 .913-1.717 7.637 7.637 0 0 0 .32-2.291"/>
                        <path data-name="Path 47621" d="M62.126 139.086v-17.08h6.082a11.237 11.237 0 0 1 2.917.329 5.463 5.463 0 0 1 1.963.926 3.49 3.49 0 0 1 1.106 1.452 5.058 5.058 0 0 1 .347 1.911 3.863 3.863 0 0 1-.158 1.107 3.351 3.351 0 0 1-.5 1 3.739 3.739 0 0 1-.873.849 5.544 5.544 0 0 1-1.282.662 4.516 4.516 0 0 1 2.418 1.33 3.523 3.523 0 0 1 .783 2.362 5.043 5.043 0 0 1-.408 2.028 4.647 4.647 0 0 1-1.2 1.636 5.613 5.613 0 0 1-1.944 1.091 8.22 8.22 0 0 1-2.645.392zm3.836-9.893h2a6.322 6.322 0 0 0 1.147-.095 2.315 2.315 0 0 0 .868-.328 1.5 1.5 0 0 0 .546-.645 2.509 2.509 0 0 0 .186-1.032 3.013 3.013 0 0 0-.148-1.014 1.459 1.459 0 0 0-.452-.65 1.881 1.881 0 0 0-.778-.352 5.226 5.226 0 0 0-1.12-.1h-2.249zm0 2.648v4.256h2.7a3.289 3.289 0 0 0 1.243-.2 1.975 1.975 0 0 0 .755-.516 1.749 1.749 0 0 0 .373-.716 3.216 3.216 0 0 0 .1-.808 2.764 2.764 0 0 0-.12-.845 1.4 1.4 0 0 0-.408-.632 1.977 1.977 0 0 0-.767-.4 4.269 4.269 0 0 0-1.2-.142z"/>
                        <path data-name="Path 47622" d="M92.451 139.086h-2.974a1.351 1.351 0 0 1-.825-.241 1.243 1.243 0 0 1-.447-.616l-.977-2.977h-6.285l-.976 2.977a1.332 1.332 0 0 1-.442.592 1.252 1.252 0 0 1-.807.264h-3l6.4-17.08h3.925zm-10.622-6.53h4.516l-1.52-4.677-.347-1.05a27.19 27.19 0 0 1-.391-1.306c-.12.477-.247.917-.374 1.325s-.251.757-.364 1.055z"/>
                        <path data-name="Path 47623" d="M97.668 135.921h6.128v3.165h-9.964v-17.08h3.836z"/>
                        <path data-name="Path 47624" d="M122.092 122.006v3.142h-4.653v13.938h-3.836v-13.938h-4.652v-3.142z"/>
                        <path data-name="Path 47625" d="M127.56 132.768v6.318h-3.836v-17.08h5.381a10.689 10.689 0 0 1 3.057.381 5.7 5.7 0 0 1 2.067 1.061 4.026 4.026 0 0 1 1.162 1.607 5.488 5.488 0 0 1 .364 2.016 5.569 5.569 0 0 1-.216 1.57 4.813 4.813 0 0 1-.642 1.366 5.056 5.056 0 0 1-1.043 1.12 5.5 5.5 0 0 1-1.424.809 3.635 3.635 0 0 1 .72.493 2.877 2.877 0 0 1 .584.715l3.518 5.943h-3.472a1.464 1.464 0 0 1-1.385-.751l-2.747-4.958a1.171 1.171 0 0 0-.424-.468 1.377 1.377 0 0 0-.688-.142zm0-2.732h1.544a3.821 3.821 0 0 0 1.331-.2 2.409 2.409 0 0 0 .9-.568 2.18 2.18 0 0 0 .51-.85 3.338 3.338 0 0 0 .158-1.049 2.235 2.235 0 0 0-.709-1.758 3.224 3.224 0 0 0-2.194-.633h-1.544z"/>
                        <path data-name="Rectangle 2429" d="M139.204 122.006h3.859v17.08h-3.859z"/>
                        <path data-name="Path 47626" d="M150.007 133.377v5.709h-3.836v-17.08h5.832a9.333 9.333 0 0 1 3 .429 5.71 5.71 0 0 1 2.067 1.178 4.634 4.634 0 0 1 1.2 1.77 6.2 6.2 0 0 1 .385 2.2 6.689 6.689 0 0 1-.4 2.345 4.713 4.713 0 0 1-1.215 1.828 5.67 5.67 0 0 1-2.071 1.19 9.2 9.2 0 0 1-2.969.429zm0-2.99h2a2.764 2.764 0 0 0 2.158-.738 3 3 0 0 0 .657-2.064 3.175 3.175 0 0 0-.17-1.067 2.195 2.195 0 0 0-.516-.826 2.3 2.3 0 0 0-.874-.533 3.743 3.743 0 0 0-1.254-.188h-2z"/>
                        <path data-name="Path 47627" d="M24.821 157.417c.142.32.278.65.406.985q.2-.516.412-1t.448-.943l4.282-8.638a1.437 1.437 0 0 1 .235-.345.791.791 0 0 1 .269-.182.919.919 0 0 1 .336-.059h3.4v17.068h-3.416v-9.823c0-.477.024-.993.069-1.548l-4.419 8.78a1.484 1.484 0 0 1-.556.622 1.51 1.51 0 0 1-.8.211h-.527a1.509 1.509 0 0 1-.8-.211 1.477 1.477 0 0 1-.556-.622l-4.443-8.791q.045.41.069.815t.022.745v9.823H15.85V147.23h3.4a.913.913 0 0 1 .337.059.785.785 0 0 1 .27.182 1.466 1.466 0 0 1 .236.345l4.293 8.673q.227.447.44.927"/>
                        <path data-name="Path 47628" d="M57.551 164.298h-3a1.371 1.371 0 0 1-.831-.24 1.245 1.245 0 0 1-.451-.616l-.986-2.977h-6.342l-.986 2.977a1.32 1.32 0 0 1-.445.592 1.274 1.274 0 0 1-.815.264h-3.022l6.459-17.08h3.962zm-10.717-6.53h4.56l-1.534-4.677q-.15-.445-.35-1.049t-.4-1.307q-.182.716-.377 1.325c-.13.406-.253.758-.367 1.055z"/>
                        <path data-name="Path 47629" d="M66.035 147.242a1.083 1.083 0 0 1 .309.088 1.01 1.01 0 0 1 .263.182 2.854 2.854 0 0 1 .287.316l7.925 10.256a19.473 19.473 0 0 1-.092-1.829v-9.037h3.411v17.079h-2.016a1.819 1.819 0 0 1-.754-.141 1.613 1.613 0 0 1-.6-.516l-7.866-10.174c.022.3.043.588.058.873s.022.553.022.8v9.155h-3.409v-17.075h2.039a3.219 3.219 0 0 1 .423.023"/>
                        <path data-name="Path 47630" d="M101.085 164.298h-3a1.371 1.371 0 0 1-.831-.24 1.245 1.245 0 0 1-.451-.616l-.983-2.977h-6.345l-.986 2.977a1.32 1.32 0 0 1-.445.592 1.274 1.274 0 0 1-.815.264h-3.022l6.459-17.08h3.96zm-10.717-6.53h4.552l-1.534-4.677q-.15-.445-.35-1.049t-.4-1.307q-.182.716-.377 1.325c-.13.406-.253.758-.367 1.055z"/>
                        <path data-name="Path 47631" d="M114.275 161.438a6.48 6.48 0 0 0 1.42-.14 6.814 6.814 0 0 0 1.168-.376v-2.591h-1.649a.788.788 0 0 1-.572-.2.669.669 0 0 1-.206-.5v-2.181h5.931v7.21a8.761 8.761 0 0 1-1.334.826 8.424 8.424 0 0 1-1.478.568 10.551 10.551 0 0 1-1.672.328 15.856 15.856 0 0 1-1.906.106 8.558 8.558 0 0 1-3.388-.662 8.215 8.215 0 0 1-2.7-1.828 8.449 8.449 0 0 1-1.787-2.766 9.208 9.208 0 0 1-.647-3.475 9.647 9.647 0 0 1 .619-3.511 7.931 7.931 0 0 1 1.771-2.765 8.037 8.037 0 0 1 2.782-1.806 9.879 9.879 0 0 1 3.648-.644 10.363 10.363 0 0 1 1.958.176 9.471 9.471 0 0 1 1.689.48 7.862 7.862 0 0 1 1.414.727 7.629 7.629 0 0 1 1.144.914l-1.122 1.746a1.257 1.257 0 0 1-.384.387.892.892 0 0 1-.486.141 1.315 1.315 0 0 1-.71-.235c-.305-.187-.593-.35-.865-.486a5.215 5.215 0 0 0-.829-.335 5.41 5.41 0 0 0-.893-.188 8.839 8.839 0 0 0-1.054-.058 4.706 4.706 0 0 0-1.957.393 4.2 4.2 0 0 0-1.483 1.108 5.049 5.049 0 0 0-.945 1.717 7.051 7.051 0 0 0-.332 2.233 7.312 7.312 0 0 0 .367 2.415 5.222 5.222 0 0 0 1.012 1.781 4.33 4.33 0 0 0 1.536 1.108 4.858 4.858 0 0 0 1.94.38"/>
                        <path data-name="Path 47632" d="M138.136 147.218v3.048h-6.847v3.985h5.244v2.931h-5.244v4.067h6.847v3.049h-10.74v-17.08z"/>
                        <path data-name="Path 47633" d="M148.876 157.98v6.318h-3.87v-17.08h5.429a10.869 10.869 0 0 1 3.084.382 5.734 5.734 0 0 1 2.085 1.061 4.022 4.022 0 0 1 1.173 1.606 5.448 5.448 0 0 1 .367 2.016 5.5 5.5 0 0 1-.218 1.571 4.806 4.806 0 0 1-.646 1.365 5.111 5.111 0 0 1-1.053 1.12 5.544 5.544 0 0 1-1.437.809 3.615 3.615 0 0 1 .727.493 2.914 2.914 0 0 1 .59.715l3.55 5.943h-3.5a1.481 1.481 0 0 1-1.4-.751l-2.771-4.958a1.182 1.182 0 0 0-.428-.469 1.419 1.419 0 0 0-.693-.141zm0-2.731h1.558a3.87 3.87 0 0 0 1.344-.206 2.43 2.43 0 0 0 .911-.568 2.159 2.159 0 0 0 .515-.849 3.289 3.289 0 0 0 .16-1.05 2.223 2.223 0 0 0-.716-1.758 3.272 3.272 0 0 0-2.213-.633h-1.558z"/>
                    </g>
                </g>
            </g>
        </g>
    </g>
</svg>
