<svg data-name="Group 5401" xmlns="http://www.w3.org/2000/svg" width="259.599" height="269.486" viewBox="0 0 259.599 269.486">
    <g data-name="Group 5396">
        <g data-name="Group 5394">
            <path data-name="Path 48296" d="M208.2 369.053a8.62 8.62 0 0 0 2.529-.23l2.069-.69v-4.6h-2.989c-.46 0-.69-.23-1.15-.46a1.2 1.2 0 0 1-.46-.92v-3.909H219v12.647a12.175 12.175 0 0 1-2.3 1.38 12.961 12.961 0 0 1-2.759.92c-.92.23-1.84.46-2.989.69a17.4 17.4 0 0 1-3.449.23 18.586 18.586 0 0 1-6.208-1.15 11.908 11.908 0 0 1-4.829-3.219 13.7 13.7 0 0 1-3.219-4.829 17.337 17.337 0 0 1 0-12.417 13.7 13.7 0 0 1 3.219-4.829 12.754 12.754 0 0 1 5.059-3.219 20.251 20.251 0 0 1 6.668-1.15 16.283 16.283 0 0 1 3.449.23 14.875 14.875 0 0 1 2.989.92 8.922 8.922 0 0 1 2.529 1.38c.69.46 1.38 1.15 2.069 1.61l-2.069 2.989-.69.69c-.23.23-.46.23-.92.23a3.268 3.268 0 0 1-1.38-.46c-.46-.23-1.15-.69-1.61-.92a11.2 11.2 0 0 0-1.61-.69 3.912 3.912 0 0 0-1.61-.23h-1.84a7.679 7.679 0 0 0-3.449.69 10.808 10.808 0 0 0-2.759 2.069 5.494 5.494 0 0 0-1.61 2.989 10.741 10.741 0 0 0-.69 3.909 13.387 13.387 0 0 0 .69 4.369 14.659 14.659 0 0 0 1.84 3.219 6.277 6.277 0 0 0 2.759 2.069 11.68 11.68 0 0 0 3.919.692z" transform="translate(-192.1 -146.244)" style="fill:#c7cee5"/>
            <path data-name="Path 48297" d="M212.7 368.2h11.267v5.518H205.8V343.6h6.9z" transform="translate(-174.299 -145.854)" style="fill:#c7cee5"/>
        </g>
        <g data-name="Group 5395">
            <path data-name="Path 48298" d="M245.1 358.676a17.272 17.272 0 0 1-1.15 5.978 14.8 14.8 0 0 1-8.05 8.046 18.6 18.6 0 0 1-12.876 0 14.613 14.613 0 0 1-5.059-3.219 13.7 13.7 0 0 1-3.219-4.829 16.119 16.119 0 0 1 0-11.957 13.7 13.7 0 0 1 3.219-4.829 12.754 12.754 0 0 1 5.059-3.219 18.878 18.878 0 0 1 6.438-1.15 19.948 19.948 0 0 1 6.438 1.15 10.534 10.534 0 0 1 4.829 3.219 13.7 13.7 0 0 1 3.219 4.829 13.228 13.228 0 0 1 1.152 5.981zm-7.128 0a13.021 13.021 0 0 0-.69-4.139 9.177 9.177 0 0 0-1.61-2.989 5.863 5.863 0 0 0-2.759-1.839 10.156 10.156 0 0 0-7.358 0 11.552 11.552 0 0 0-2.759 1.839 7.572 7.572 0 0 0-1.61 2.989 11.139 11.139 0 0 0-.69 4.139 12.026 12.026 0 0 0 .69 4.139 9.177 9.177 0 0 0 1.61 2.989 5.863 5.863 0 0 0 2.759 1.839 10.156 10.156 0 0 0 7.358 0 11.556 11.556 0 0 0 2.759-1.839 7.572 7.572 0 0 0 1.61-2.989 11.139 11.139 0 0 0 .691-4.139z" transform="translate(-164.163 -145.984)" style="fill:#c7cee5"/>
            <path data-name="Path 48299" d="M228.8 373.722V343.6h11.037a17.361 17.361 0 0 1 5.289.69 13.63 13.63 0 0 1 3.679 1.61 7.188 7.188 0 0 1 2.069 2.529 7.679 7.679 0 0 1 .69 3.449 6.365 6.365 0 0 1-.23 2.069 6.883 6.883 0 0 1-.92 1.839 10.621 10.621 0 0 1-1.61 1.61 7.193 7.193 0 0 1-2.3 1.15 8.675 8.675 0 0 1 4.369 2.3 6.42 6.42 0 0 1 1.38 4.139 9.533 9.533 0 0 1-.69 3.679 8.75 8.75 0 0 1-2.069 2.989 8.292 8.292 0 0 1-3.449 1.839 15.287 15.287 0 0 1-4.829.69H228.8zm6.9-17.475h3.679a6.365 6.365 0 0 0 2.069-.23c.69-.23 1.15-.23 1.609-.69a2.3 2.3 0 0 0 .92-1.15 7.471 7.471 0 0 0 0-3.679 2.3 2.3 0 0 0-.92-1.15l-1.38-.69a5.1 5.1 0 0 0-2.069-.23h-4.139v7.818zm0 4.6v7.588h4.829a6.8 6.8 0 0 0 2.3-.46 2.112 2.112 0 0 0 1.38-.92c.23-.46.46-.69.69-1.15a2.917 2.917 0 0 0 .23-1.38c0-.46 0-1.15-.23-1.38a5.029 5.029 0 0 0-.69-1.15l-1.38-.69a6.408 6.408 0 0 0-2.3-.23H235.7z" transform="translate(-144.413 -145.854)" style="fill:#c7cee5"/>
            <path data-name="Path 48300" d="M270.342 373.722h-5.518a3.323 3.323 0 0 1-1.61-.46 2.3 2.3 0 0 1-.92-1.15l-1.839-5.289h-11.5l-1.84 5.289a4.037 4.037 0 0 1-.92 1.15 3.268 3.268 0 0 1-1.38.46H239.3l11.727-30.122h7.128zm-19.315-11.5h8.273l-2.759-8.278a15.855 15.855 0 0 1-.69-1.839c-.23-.69-.46-1.38-.69-2.3-.23.92-.46 1.61-.69 2.3a15.828 15.828 0 0 1-.69 1.839z" transform="translate(-130.769 -145.854)" style="fill:#c7cee5"/>
            <path data-name="Path 48301" d="M260.8 368.2h11.267v5.518H253.9V343.6h6.9z" transform="translate(-111.798 -145.854)" style="fill:#c7cee5"/>
            <path data-name="Path 48302" d="M289.714 343.6v5.518h-8.508v24.6h-6.9v-24.6H265.8V343.6z" transform="translate(-96.336 -145.854)" style="fill:#c7cee5"/>
            <path data-name="Path 48303" d="M284.4 362.455v11.267h-6.9V343.6h9.887a18.994 18.994 0 0 1 5.518.69 10.972 10.972 0 0 1 3.679 1.839 7.929 7.929 0 0 1 2.069 2.759 9.226 9.226 0 0 1 .69 3.449 11.543 11.543 0 0 1-.46 2.759 7.193 7.193 0 0 1-1.15 2.3 14.877 14.877 0 0 1-1.839 2.069 5.482 5.482 0 0 1-2.529 1.38 4.811 4.811 0 0 1 1.38.92l1.15 1.15 6.438 10.577h-6.438a2.642 2.642 0 0 1-2.529-1.38l-5.059-8.738a3.175 3.175 0 0 0-.69-.92 1.723 1.723 0 0 0-1.15-.23H284.4zm0-4.829h2.759a8.267 8.267 0 0 0 2.529-.46 3.523 3.523 0 0 0 2.529-2.529 5.063 5.063 0 0 0 .23-1.839 3.416 3.416 0 0 0-1.38-2.989 6.577 6.577 0 0 0-3.909-1.15H284.4z" transform="translate(-81.133 -145.854)" style="fill:#c7cee5"/>
            <path data-name="Path 48304" d="M296.728 373.722H289.6V343.6h7.128z" transform="translate(-65.411 -145.854)" style="fill:#c7cee5"/>
            <path data-name="Path 48305" d="M302.1 363.6v10.117h-6.9V343.6h10.577a20.123 20.123 0 0 1 5.518.69 8.141 8.141 0 0 1 3.679 2.069 7.794 7.794 0 0 1 2.069 3.219 10.741 10.741 0 0 1 .69 3.909 11.14 11.14 0 0 1-.69 4.139 7.625 7.625 0 0 1-2.3 3.219 9.592 9.592 0 0 1-3.679 2.069 18.992 18.992 0 0 1-5.518.69H302.1zm0-5.289h3.679c1.839 0 3.219-.46 3.909-1.38a5.85 5.85 0 0 0 1.15-3.679 4.481 4.481 0 0 0-.23-1.839c-.23-.46-.46-1.15-.92-1.38a3.705 3.705 0 0 0-1.61-.92 7.087 7.087 0 0 0-2.3-.23H302.1z" transform="translate(-58.134 -145.854)" style="fill:#c7cee5"/>
        </g>
    </g>
    <g data-name="Group 5399">
        <g data-name="Group 5397">
            <path data-name="Path 48306" d="M219.566 379.535a15.843 15.843 0 0 1 .69 1.839c.23-.69.46-1.15.69-1.839a5.765 5.765 0 0 1 .92-1.61l7.818-15.176c.23-.23.23-.46.46-.69s.23-.23.46-.23h6.668v30.122h-6.208v-17.245a11.2 11.2 0 0 1 .23-2.759l-8.048 15.406a5.015 5.015 0 0 1-.92 1.15 3.267 3.267 0 0 1-1.38.46h-.92a3.268 3.268 0 0 1-1.38-.46 2.3 2.3 0 0 1-.92-1.15l-8.048-15.636a2.916 2.916 0 0 0 .23 1.38v18.625H203.7V361.6h6.668c.23 0 .23.23.46.23.23.23.23.46.46.69l7.818 15.406c-.23.459.23 1.149.46 1.609z" transform="translate(-177.027 -122.465)" style="fill:#c7cee5"/>
            <path data-name="Path 48307" d="M250.142 391.722h-5.518a3.323 3.323 0 0 1-1.61-.46 2.3 2.3 0 0 1-.92-1.15l-1.839-5.289h-11.5l-1.84 5.289a4.037 4.037 0 0 1-.92 1.15 3.268 3.268 0 0 1-1.38.46H219.1l11.727-30.122h7.128zm-19.315-11.5h8.273l-2.759-8.278a15.859 15.859 0 0 1-.69-1.839c-.23-.69-.46-1.38-.69-2.3-.23.92-.46 1.61-.69 2.3a15.832 15.832 0 0 1-.69 1.839z" transform="translate(-157.017 -122.465)" style="fill:#c7cee5"/>
            <path data-name="Path 48308" d="M238.459 361.6c.23 0 .46 0 .46.23.23 0 .23.23.46.23l.46.46 14.256 18.165a3.409 3.409 0 0 0-.23-1.61V361.6h6.208v30.122h-3.679a2.917 2.917 0 0 1-1.38-.23 4.038 4.038 0 0 1-1.15-.92l-14.256-17.935v19.085H233.4V361.6h5.059z" transform="translate(-138.436 -122.465)" style="fill:#c7cee5"/>
            <path data-name="Path 48309" d="M277.042 391.722h-5.518a3.323 3.323 0 0 1-1.61-.46 2.3 2.3 0 0 1-.92-1.15l-1.839-5.289h-11.5l-1.84 5.289a4.036 4.036 0 0 1-.92 1.15 3.267 3.267 0 0 1-1.38.46H246l11.727-30.122h7.128zm-19.315-11.5H266l-2.759-8.278a15.859 15.859 0 0 1-.69-1.839c-.23-.69-.46-1.38-.69-2.3-.23.92-.46 1.61-.69 2.3a15.832 15.832 0 0 1-.69 1.839z" transform="translate(-122.064 -122.465)" style="fill:#c7cee5"/>
        </g>
        <g data-name="Group 5398">
            <path data-name="Path 48310" d="M275.166 387.053a8.623 8.623 0 0 0 2.529-.23l2.069-.69v-4.6h-2.989a1.626 1.626 0 0 1-1.38-1.38v-3.909H286.2v12.647a12.176 12.176 0 0 1-2.3 1.38 12.96 12.96 0 0 1-2.759.92c-.92.23-1.839.46-2.989.69a17.4 17.4 0 0 1-3.449.23 18.587 18.587 0 0 1-6.208-1.15 11.908 11.908 0 0 1-4.829-3.219 13.7 13.7 0 0 1-3.219-4.829 17.337 17.337 0 0 1 0-12.417 13.7 13.7 0 0 1 3.219-4.829 12.754 12.754 0 0 1 5.059-3.219 20.252 20.252 0 0 1 6.668-1.15 16.287 16.287 0 0 1 3.449.23 14.878 14.878 0 0 1 2.989.92 8.923 8.923 0 0 1 2.529 1.38c.69.46 1.38 1.15 2.069 1.61l-2.069 2.989-.69.69c-.23.23-.46.23-.92.23a3.268 3.268 0 0 1-1.38-.46c-.46-.23-1.15-.69-1.61-.92a11.2 11.2 0 0 0-1.61-.69 3.913 3.913 0 0 0-1.61-.23h-1.839a7.679 7.679 0 0 0-3.449.69 7.931 7.931 0 0 0-2.759 2.069 7.573 7.573 0 0 0-1.61 2.989 19.742 19.742 0 0 0-.69 3.909 13.39 13.39 0 0 0 .69 4.369 14.662 14.662 0 0 0 1.839 3.219 6.277 6.277 0 0 0 2.759 2.069 10.416 10.416 0 0 0 3.685.692z" transform="translate(-104.782 -122.855)" style="fill:#c7cee5"/>
            <path data-name="Path 48311" d="M292.215 361.73v5.289H279.8v7.128h9.427v5.059H279.8v7.128h12.417v5.289H272.9V361.5h19.315z" transform="translate(-87.111 -122.595)" style="fill:#c7cee5"/>
            <path data-name="Path 48312" d="M290 380.455v11.267h-6.9V361.6h9.887a18.994 18.994 0 0 1 5.518.69 10.97 10.97 0 0 1 3.679 1.839 7.929 7.929 0 0 1 2.069 2.759 9.226 9.226 0 0 1 .69 3.449 11.54 11.54 0 0 1-.46 2.759 7.191 7.191 0 0 1-1.15 2.3 14.881 14.881 0 0 1-1.839 2.069 5.481 5.481 0 0 1-2.529 1.38 4.811 4.811 0 0 1 1.38.92l1.15 1.15 6.438 10.577h-6.668a2.642 2.642 0 0 1-2.529-1.38l-5.059-8.738a3.175 3.175 0 0 0-.69-.92 1.723 1.723 0 0 0-1.15-.23H290zm0-4.829h2.759a8.267 8.267 0 0 0 2.529-.46 3.523 3.523 0 0 0 2.529-2.529 5.062 5.062 0 0 0 .23-1.839 3.416 3.416 0 0 0-1.38-2.989 6.577 6.577 0 0 0-3.909-1.15H290z" transform="translate(-73.857 -122.465)" style="fill:#c7cee5"/>
        </g>
    </g>
    <g data-name="Group 5400">
        <path data-name="Path 48313" d="M289.33 257.6a72.421 72.421 0 0 0-72.43 72.43 72.421 72.421 0 0 0 72.43 72.43 72.421 72.421 0 0 0 72.43-72.43 72.421 72.421 0 0 0-72.43-72.43z" transform="translate(-159.876 -257.6)" style="fill:#5a2f80"/>
        <path data-name="Path 48314" d="m292.684 382.859-4.369-25.059 33.341 6.2a48.51 48.51 0 0 0 4.369-5.289L262.332 269.5 232.9 378.03c1.61.92 3.449 1.839 5.289 2.759l30.122-18.855 4.6 25.293a107.74 107.74 0 0 0 19.775-4.369z" transform="translate(-139.086 -242.137)" style="fill:#400e6c"/>
        <path data-name="Path 48315" d="m281.868 395.625-9.2-34.261-35.868 26.214L258.644 268.7l78.409 92.2-44.153-4.824 9.2 34.261-20.234 5.289zm-8.738-35.64 9.2 34.721 18.625-5.059-9.2-34.721 43.228 4.6L259.1 270.31l-21.154 115.2 35.18-25.523z" transform="translate(-134.018 -243.177)" style="fill:#c6cee6"/>
        <path data-name="Path 48316" d="m246.4 269.1 77.029 90.6-43.688-4.6 9.427 34.491-9.887 2.529z" transform="translate(-121.545 -242.657)" style="fill:#c6cee6"/>
        <path data-name="Path 48317" d="M258.484 269.1 237.1 386.138l35.41-25.983 9.2 34.491 9.657-2.529z" transform="translate(-133.629 -242.657)" style="fill:#fff"/>
    </g>
</svg>
