<svg data-name="GTM Logo" xmlns="http://www.w3.org/2000/svg" width="194" height="64" viewBox="0 0 194 64">
    <defs>
        <clipPath id="7dzdl8xoza">
            <path data-name="Rectangle 2052" transform="translate(-14)" style="fill:none" d="M0 0h194v64H0z"/>
        </clipPath>
        <clipPath id="oab3nfacsb">
            <path data-name="Rectangle 2424" style="fill:none" d="M0 0h168v36H0z"/>
        </clipPath>
        <clipPath id="0ycqqnhatc">
            <path data-name="Path 47599" d="m17.785 32.963 2.484-.672-2.36-8.877 11.136 1.212L9.391 1.247z" transform="translate(-9.391 -1.247)" style="fill:none"/>
        </clipPath>
        <clipPath id="pr982zz3ue">
            <path data-name="Path 47600" d="m5.73 31.419 9.042-6.663 2.361 8.877 2.483-.67-8.394-31.716z" transform="translate(-5.73 -1.247)" style="fill:none"/>
        </clipPath>
        <clipPath id="dam2kttbbg">
            <path data-name="Rectangle 2422" style="fill:none" d="M0 0h11.251v8.977H0z"/>
        </clipPath>
        <linearGradient id="vdp2lmzk2d" x1="-.192" y1="1.243" x2="-.149" y2="1.243" gradientUnits="objectBoundingBox">
            <stop offset="0" stop-color="#bbc8e5"/>
            <stop offset="1" stop-color="#8c9cc0"/>
        </linearGradient>
        <linearGradient id="15c1w8dt4f" x1="-.116" y1="1.01" x2="-.057" y2="1.01" gradientUnits="objectBoundingBox">
            <stop offset="0" stop-color="#fff"/>
            <stop offset="1" stop-color="#e3eafa"/>
        </linearGradient>
    </defs>
    <g data-name="Group 3664" transform="translate(14)" style="clip-path:url(#7dzdl8xoza)">
        <g data-name="Group 4390">
            <g data-name="Group 4401" style="clip-path:url(#oab3nfacsb)" transform="translate(0 14)">
                <g data-name="Group 4391">
                    <g data-name="Group 4390" style="clip-path:url(#oab3nfacsb)">
                        <path data-name="Path 47588" d="M60.975 12.381a4.76 4.76 0 0 0 1.123-.12 5.33 5.33 0 0 0 .924-.322V9.711h-1.305a.591.591 0 0 1-.451-.171.6.6 0 0 1-.164-.433V7.233h4.692v6.195a6.844 6.844 0 0 1-1.054.711 6.321 6.321 0 0 1-1.17.488 7.84 7.84 0 0 1-1.323.283 11.843 11.843 0 0 1-1.507.09 6.287 6.287 0 0 1-2.681-.57 6.465 6.465 0 0 1-2.135-1.571 7.341 7.341 0 0 1-1.413-2.377A8.512 8.512 0 0 1 54 7.5a8.963 8.963 0 0 1 .489-3.018 6.925 6.925 0 0 1 1.4-2.373 6.339 6.339 0 0 1 2.2-1.551A7.254 7.254 0 0 1 60.975 0a7.6 7.6 0 0 1 1.549.15 7 7 0 0 1 1.337.414 5.974 5.974 0 0 1 1.119.624 6.165 6.165 0 0 1 .9.786L65 3.475a1.019 1.019 0 0 1-.3.332.667.667 0 0 1-.386.121 1 1 0 0 1-.561-.2 9.116 9.116 0 0 0-.684-.418 4.084 4.084 0 0 0-.657-.288 3.925 3.925 0 0 0-.712-.162 6.389 6.389 0 0 0-.835-.049 3.47 3.47 0 0 0-1.548.336 3.366 3.366 0 0 0-1.173.953 4.442 4.442 0 0 0-.744 1.476 6.56 6.56 0 0 0-.263 1.92 6.755 6.755 0 0 0 .291 2.074 4.618 4.618 0 0 0 .8 1.531 3.432 3.432 0 0 0 1.215.953 3.587 3.587 0 0 0 1.535.327"/>
                        <path data-name="Path 47589" d="M70.76 12.119h4.891v2.72h-7.954V.161h3.063z"/>
                        <path data-name="Path 47590" d="M89.441 7.5a8.651 8.651 0 0 1-.493 2.961 7.25 7.25 0 0 1-1.391 2.382 6.36 6.36 0 0 1-2.16 1.587 7.142 7.142 0 0 1-5.613 0 6.386 6.386 0 0 1-2.17-1.587 7.2 7.2 0 0 1-1.394-2.382 8.651 8.651 0 0 1-.5-2.961 8.66 8.66 0 0 1 .5-2.963 7.168 7.168 0 0 1 1.394-2.378A6.45 6.45 0 0 1 79.782.574 6.715 6.715 0 0 1 82.59 0a6.642 6.642 0 0 1 2.805.579 6.48 6.48 0 0 1 2.16 1.587 7.213 7.213 0 0 1 1.386 2.377 8.624 8.624 0 0 1 .5 2.957m-3.133 0a7 7 0 0 0-.255-1.961 4.255 4.255 0 0 0-.729-1.474 3.152 3.152 0 0 0-1.164-.927 3.66 3.66 0 0 0-1.567-.323 3.722 3.722 0 0 0-1.581.323 3.161 3.161 0 0 0-1.167.927 4.283 4.283 0 0 0-.73 1.474 7 7 0 0 0-.257 1.961 7.031 7.031 0 0 0 .254 1.969 4.3 4.3 0 0 0 .73 1.476 3.13 3.13 0 0 0 1.167.921 3.767 3.767 0 0 0 1.581.318 3.7 3.7 0 0 0 1.567-.318 3.121 3.121 0 0 0 1.164-.921 4.276 4.276 0 0 0 .729-1.476 7.028 7.028 0 0 0 .255-1.969"/>
                        <path data-name="Path 47591" d="M90.942 14.839V.16h4.856a8.353 8.353 0 0 1 2.328.282 4.246 4.246 0 0 1 1.567.8 2.974 2.974 0 0 1 .884 1.25 4.633 4.633 0 0 1 .277 1.641 3.569 3.569 0 0 1-.128.952 2.964 2.964 0 0 1-.4.863 3.072 3.072 0 0 1-.7.729 4.3 4.3 0 0 1-1.023.57 3.561 3.561 0 0 1 1.931 1.143 3.183 3.183 0 0 1 .624 2.029 4.6 4.6 0 0 1-.326 1.743 3.966 3.966 0 0 1-.957 1.406 4.4 4.4 0 0 1-1.552.938 6.135 6.135 0 0 1-2.112.337zm3.063-8.5H95.6a4.7 4.7 0 0 0 .914-.086 1.783 1.783 0 0 0 .693-.28 1.272 1.272 0 0 0 .435-.555 2.288 2.288 0 0 0 .148-.886 2.777 2.777 0 0 0-.117-.871 1.255 1.255 0 0 0-.359-.558 1.435 1.435 0 0 0-.621-.3 3.883 3.883 0 0 0-.894-.09h-1.794zm0 2.276v3.657h2.156a2.465 2.465 0 0 0 .993-.171 1.586 1.586 0 0 0 .6-.444 1.539 1.539 0 0 0 .3-.613 2.941 2.941 0 0 0 .083-.694 2.525 2.525 0 0 0-.1-.726 1.228 1.228 0 0 0-.326-.545 1.562 1.562 0 0 0-.612-.342 3.2 3.2 0 0 0-.96-.122z"/>
                        <path data-name="Path 47592" d="M115.15 14.839h-2.374a1.023 1.023 0 0 1-.658-.207 1.075 1.075 0 0 1-.357-.529l-.78-2.558h-5.017l-.781 2.558a1.121 1.121 0 0 1-.352.51.952.952 0 0 1-.644.227h-2.391L106.907.16h3.132zm-8.479-5.612h3.6l-1.215-4.02q-.119-.382-.276-.9t-.309-1.124c-.1.411-.2.789-.3 1.138s-.2.653-.291.908z"/>
                        <path data-name="Path 47593" d="M119.315 12.119h4.891v2.72h-7.955V.161h3.063z"/>
                        <path data-name="Path 47594" d="M138.812.161v2.7h-3.714v11.978h-3.063V2.861h-3.714v-2.7z"/>
                        <path data-name="Path 47595" d="M143.178 9.41v5.43h-3.063V.162h4.3a7.949 7.949 0 0 1 2.44.327 4.448 4.448 0 0 1 1.65.912 3.458 3.458 0 0 1 .927 1.38 5.023 5.023 0 0 1 .289 1.733 5.105 5.105 0 0 1-.172 1.35A4.231 4.231 0 0 1 148.205 8a4.307 4.307 0 0 1-1.137.694 2.829 2.829 0 0 1 .575.424 2.416 2.416 0 0 1 .466.614l2.81 5.107h-2.772a1.155 1.155 0 0 1-1.107-.645l-2.195-4.26a.978.978 0 0 0-.339-.4 1.042 1.042 0 0 0-.549-.122zm0-2.347h1.233a2.856 2.856 0 0 0 1.062-.175 1.844 1.844 0 0 0 1.132-1.221 3.06 3.06 0 0 0 .128-.9 2 2 0 0 0-.566-1.51 2.449 2.449 0 0 0-1.752-.545h-1.237z"/>
                        <path data-name="Rectangle 2418" d="M152.474.16h3.08v14.679h-3.08z"/>
                        <path data-name="Path 47596" d="M161.097 9.933v4.9h-3.063V.16h4.658a6.97 6.97 0 0 1 2.4.367 4.52 4.52 0 0 1 1.65 1.012 4.025 4.025 0 0 1 .956 1.521 5.715 5.715 0 0 1 .307 1.894 6.161 6.161 0 0 1-.316 2.015 4.1 4.1 0 0 1-.971 1.572 4.455 4.455 0 0 1-1.653 1.021 6.849 6.849 0 0 1-2.368.369zm0-2.57h1.594a2.118 2.118 0 0 0 1.722-.634 2.708 2.708 0 0 0 .525-1.773 2.932 2.932 0 0 0-.137-.916 1.9 1.9 0 0 0-.413-.71 1.793 1.793 0 0 0-.7-.459 2.787 2.787 0 0 0-1-.162h-1.594z"/>
                        <path data-name="Path 47597" d="M36 18a17.958 17.958 0 0 1-4.981 12.432c-.093.1-.192.2-.291.3a17.866 17.866 0 0 1-11 5.191C19.155 35.972 18.58 36 18 36a17.91 17.91 0 0 1-6.6-1.248 15.69 15.69 0 0 1-1.5-.674A18 18 0 1 1 36 18" style="fill-rule:evenodd;fill:#5a2f80"/>
                        <path data-name="Path 47598" d="m31.235 26.445-12.491-1.386 4.032 7.308-.048 1.581a16.537 16.537 0 0 1-7.046 1.4l-1.873-9.3-8.423 6.1-.752-.594 7.135-30.3L31.95 25.09z" transform="translate(2.318 .624)" style="fill:#470970;fill-rule:evenodd"/>
                    </g>
                </g>
                <g data-name="Group 4393">
                    <g data-name="Group 4392" style="clip-path:url(#0ycqqnhatc)" transform="translate(14.087 1.87)">
                        <path data-name="Rectangle 2420" transform="rotate(-80.39 15.636 18.505)" style="fill:url(#vdp2lmzk2d)" d="M0 0h34.552v24.673H0z"/>
                    </g>
                </g>
                <g data-name="Group 4395">
                    <g data-name="Group 4394" style="clip-path:url(#pr982zz3ue)" transform="translate(8.595 1.87)">
                        <path data-name="Rectangle 2421" transform="rotate(-22.476 6.19 31.157)" style="fill:url(#15c1w8dt4f)" d="M0 0h25.212v35.235H0z"/>
                    </g>
                </g>
                <g data-name="Group 4400">
                    <g data-name="Group 4399" style="clip-path:url(#oab3nfacsb)">
                        <path data-name="Path 47601" d="M11.264 1.247C9.878 9.835 7.4 22.754 5.857 31.434l-.135-.084c.876-.637 4.86-3.6 5.661-4.153 1.017-.726 2.411-1.719 3.432-2.442-1.42 1.081-3.045 2.333-4.469 3.4l-4.523 3.33-.175.128.039-.213c1.621-8.708 3.838-21.582 5.577-30.153" transform="translate(2.824 .623)" style="fill:#fff"/>
                        <g data-name="Group 4398" style="opacity:.6">
                            <g data-name="Group 4397">
                                <g data-name="Group 4396" style="clip-path:url(#dam2kttbbg)" transform="translate(22.489 23.938)">
                                    <path data-name="Path 47602" d="M17.468 24.937c-.812-2.523-1.74-6.261-2.444-8.856l-.031-.123.125.015 5.568.606c.513.06 3.014.315 3.479.395l1.388.2.693.1-.7-.05c-.654-.051-1.448-.1-2.1-.167l-8.351-.91.093-.108c.681 2.615 1.723 6.294 2.275 8.9" transform="translate(-14.993 -15.959)" style="fill:#fff"/>
                                </g>
                            </g>
                        </g>
                        <path data-name="Path 47603" d="M61.163 29.925c.112.274.222.558.324.846q.157-.443.328-.861c.117-.279.236-.55.357-.812l3.42-7.424a1.2 1.2 0 0 1 .188-.3.6.6 0 0 1 .213-.156.7.7 0 0 1 .27-.051h2.711V35.84h-2.725v-8.443c0-.41.02-.854.055-1.33l-3.528 7.547a1.246 1.246 0 0 1-.443.532 1.139 1.139 0 0 1-.636.181h-.421a1.134 1.134 0 0 1-.635-.181 1.249 1.249 0 0 1-.444-.532l-3.545-7.557a12.384 12.384 0 0 1 .073 1.34v8.442H54V21.171h2.712a.691.691 0 0 1 .269.051.611.611 0 0 1 .216.156 1.29 1.29 0 0 1 .188.3l3.427 7.454c.12.255.239.521.351.8"/>
                        <path data-name="Path 47604" d="M87.291 35.839h-2.4a1.036 1.036 0 0 1-.663-.207 1.057 1.057 0 0 1-.36-.528l-.787-2.559h-5.059l-.787 2.559a1.133 1.133 0 0 1-.355.508.973.973 0 0 1-.65.227h-2.414l5.157-14.678h3.161zm-8.556-5.611h3.637l-1.224-4.02c-.081-.254-.173-.555-.281-.9s-.211-.721-.315-1.124c-.1.41-.2.789-.3 1.139s-.2.651-.294.906z"/>
                        <path data-name="Path 47605" d="M94.062 21.182a.762.762 0 0 1 .456.233 2.4 2.4 0 0 1 .229.271l6.326 8.814c-.024-.282-.042-.555-.054-.82s-.018-.514-.018-.75v-7.769h2.723V35.84h-1.608a1.35 1.35 0 0 1-.6-.121 1.324 1.324 0 0 1-.476-.443l-6.281-8.745c.018.255.035.505.047.751s.018.475.018.69v7.868h-2.725V21.161h1.628a2.354 2.354 0 0 1 .337.021"/>
                        <path data-name="Path 47606" d="M122.043 35.839h-2.4a1.036 1.036 0 0 1-.663-.207 1.057 1.057 0 0 1-.36-.528l-.787-2.559h-5.059l-.785 2.559a1.133 1.133 0 0 1-.355.508.973.973 0 0 1-.65.227h-2.416l5.157-14.678h3.164zm-8.554-5.611h3.637l-1.224-4.02c-.081-.254-.173-.555-.28-.9s-.211-.721-.315-1.124c-.1.41-.2.789-.3 1.139s-.2.651-.294.906z"/>
                        <path data-name="Path 47607" d="M132.571 33.381a4.844 4.844 0 0 0 1.134-.12 5.346 5.346 0 0 0 .933-.323v-2.227h-1.317a.605.605 0 0 1-.458-.171.6.6 0 0 1-.165-.432v-1.873h4.736v6.195a6.956 6.956 0 0 1-1.065.71 6.518 6.518 0 0 1-1.179.489 8.017 8.017 0 0 1-1.335.282 12.086 12.086 0 0 1-1.522.09 6.422 6.422 0 0 1-2.7-.569 6.561 6.561 0 0 1-2.152-1.572 7.318 7.318 0 0 1-1.426-2.377 8.439 8.439 0 0 1-.516-2.987 8.881 8.881 0 0 1 .493-3.016 6.9 6.9 0 0 1 1.411-2.373 6.388 6.388 0 0 1 2.222-1.551 7.376 7.376 0 0 1 2.906-.556 7.729 7.729 0 0 1 1.563.152 7.2 7.2 0 0 1 1.349.413 6.106 6.106 0 0 1 2.043 1.411l-.9 1.5a1.058 1.058 0 0 1-.307.331.673.673 0 0 1-.388.122 1 1 0 0 1-.566-.2c-.245-.16-.474-.3-.691-.417a3.826 3.826 0 0 0-.661-.288 4.144 4.144 0 0 0-.713-.162 6.761 6.761 0 0 0-.841-.05 3.531 3.531 0 0 0-1.563.338 3.384 3.384 0 0 0-1.184.952 4.451 4.451 0 0 0-.755 1.476 6.49 6.49 0 0 0-.266 1.918 6.716 6.716 0 0 0 .294 2.076 4.591 4.591 0 0 0 .807 1.53 3.459 3.459 0 0 0 1.227.953 3.625 3.625 0 0 0 1.548.327"/>
                        <path data-name="Path 47608" d="M151.62 21.161v2.619h-5.466v3.426h4.186v2.518h-4.186v3.495h5.466v2.619h-8.574V21.161z"/>
                        <path data-name="Path 47609" d="M160.194 30.408v5.43h-3.09V21.161h4.333a8.086 8.086 0 0 1 2.463.329 4.454 4.454 0 0 1 1.663.912 3.443 3.443 0 0 1 .936 1.378 4.992 4.992 0 0 1 .294 1.734 5.105 5.105 0 0 1-.174 1.35 4.273 4.273 0 0 1-.517 1.173 4.228 4.228 0 0 1-.84.962 4.35 4.35 0 0 1-1.148.7 2.9 2.9 0 0 1 .58.423 2.5 2.5 0 0 1 .471.615l2.833 5.106h-2.8a1.163 1.163 0 0 1-1.115-.644l-2.212-4.262a.992.992 0 0 0-.342-.4 1.059 1.059 0 0 0-.554-.122zm0-2.346h1.243a2.877 2.877 0 0 0 1.072-.177 1.848 1.848 0 0 0 1.139-1.218 3.063 3.063 0 0 0 .128-.9 1.988 1.988 0 0 0-.572-1.51 2.48 2.48 0 0 0-1.767-.545h-1.243z"/>
                    </g>
                </g>
            </g>
        </g>
    </g>
</svg>
