<svg xmlns="http://www.w3.org/2000/svg" width="16" height="16" viewBox="0 0 16 16">
    <g data-name="Group 3199">
        <path data-name="Path 35102" d="M8 0a8 8 0 0 1 0 16 8.119 8.119 0 0 1-6.926-3.994A7.7 7.7 0 0 1 0 8a8 8 0 0 1 8-8z" style="fill:#434244"/>
        <path d="M113.725 38.075a.277.277 0 0 0 .026-.119V35.67a.287.287 0 0 0-.288-.286h-1.18a.287.287 0 0 0-.288.286v.686l-1.18-1.173a.289.289 0 0 0-.407 0l-3.736 3.717a.285.285 0 0 0-.062.311.288.288 0 0 0 .266.176h.575v3.429a.287.287 0 0 0 .288.286h5.751a.287.287 0 0 0 .288-.286v-3.479h.523a.288.288 0 0 0 .266-.176.285.285 0 0 0-.062-.311zm-1.7 4.454h1.175v-3.478a.287.287 0 0 1 .288-.286h.117l-2.994-2.975-3.042 3.024h.168a.287.287 0 0 1 .288.286v3.429h1.124v-2.287a.573.573 0 0 1 .575-.572h1.725a.573.573 0 0 1 .575.572zm-2.3 0h1.725v-2.287h-1.725zm3.451-5v-1.573h-.605v.972z" transform="translate(-102.588 -31.1)" style="fill:#fff;fill-rule:evenodd"/>
    </g>
</svg>
