<svg xmlns="http://www.w3.org/2000/svg" width="10" height="12" viewBox="0 0 10 12">
    <g data-name="exit icon">
        <g data-name="Group 3903">
            <path data-name="Path 35094" d="M291.666 287.317c.253.088.5.175.756.261.542.184.74.5.74 1.168v7.854c.055.005.1.012.14.013h1.77c.2 0 .219-.024.219-.26v-2.565a1.427 1.427 0 0 1 .011-.215.371.371 0 0 1 .346-.352.377.377 0 0 1 .35.349.71.71 0 0 1 .008.117c0 .928.006 1.855 0 2.782a.9.9 0 0 1-.832.986c-.6.008-1.191 0-1.786 0h-.207c-.014.062-.028.116-.038.171-.1.571-.531.91-1 .773-1.059-.307-2.115-.625-3.172-.943-.241-.072-.309-.2-.31-.54l-.012-8.087v-1.835c0-.429.116-.565.474-.565h5.97c.577 0 .916.4.917 1.087v2.663c0 .275-.119.453-.309.48-.239.034-.4-.158-.405-.483v-2.683c0-.147-.046-.221-.172-.221l-3.44.005s-.008.014-.018.04z" transform="translate(-288.645 -286.435)" style="fill:#434343"/>
            <path data-name="Path 35095" d="M304.719 296.458H301.824c-.327 0-.521-.177-.515-.458s.2-.439.514-.44h2.953c-.147-.156-.268-.28-.384-.407a.464.464 0 0 1-.108-.555.421.421 0 0 1 .676-.129c.41.4.807.814 1.2 1.233a.435.435 0 0 1-.005.625q-.576.612-1.169 1.205a.42.42 0 0 1-.622 0 .445.445 0 0 1 .01-.639c.121-.131.26-.245.39-.366z" transform="translate(-296.288 -290.484)" style="fill:#434343"/>
        </g>
    </g>
</svg>
