<svg xmlns="http://www.w3.org/2000/svg" width="22" height="20" viewBox="0 0 22 20">
    <defs>
        <clipPath id="wip0vwjxia">
            <path data-name="Rectangle 2417" style="fill:#434244" d="M0 0h22v20H0z"/>
        </clipPath>
    </defs>
    <g data-name="Logs icon" style="opacity:.6">
        <g data-name="Group 4375" style="clip-path:url(#wip0vwjxia)">
            <path data-name="Path 47583" d="M21.9 18.9 11.562.322a.652.652 0 0 0-1.124 0L.1 18.9a.785.785 0 0 0-.011.731.65.65 0 0 0 .569.369h20.684a.65.65 0 0 0 .574-.368.787.787 0 0 0-.016-.732m-20.069-.345L11 2.085l9.169 16.47z" style="fill:#434244"/>
            <path data-name="Path 47584" d="M12.009 14.43a.816.816 0 0 0-.366-.084.832.832 0 0 0-.372.084.98.98 0 0 0-.5.567 1.261 1.261 0 0 0 0 .837 1.022 1.022 0 0 0 .2.336.941.941 0 0 0 .3.222.874.874 0 0 0 .372.082.857.857 0 0 0 .366-.082.9.9 0 0 0 .3-.222 1.091 1.091 0 0 0 .2-.336 1.2 1.2 0 0 0 0-.837 1.06 1.06 0 0 0-.2-.34.944.944 0 0 0-.3-.227" transform="translate(-.64 .461)" style="fill:#434244"/>
            <path data-name="Path 47585" d="M10.951 10.451q0 .644.055 1.262t.149 1.312h1.036c.063-.462.112-.9.149-1.312s.055-.833.055-1.262V6.407h-1.444z" transform="translate(-.655 .206)" style="fill:#434244"/>
        </g>
    </g>
</svg>
