<svg data-name="Messages icon" xmlns="http://www.w3.org/2000/svg" width="22" height="20" viewBox="0 0 22 20">
    <g data-name="Group 2172">
        <path data-name="Messages icon" d="M282.776 186.94h-19.785a1.123 1.123 0 0 0-1.107 1.12v12.926a1.123 1.123 0 0 0 1.107 1.12h13.24l4.783 4.835v-4.835h1.762a1.123 1.123 0 0 0 1.108-1.12V188.06a1.123 1.123 0 0 0-1.108-1.12zm-16.161 8.906a1.374 1.374 0 1 1 1.359-1.374 1.361 1.361 0 0 1-1.359 1.374zm6.293 0a1.374 1.374 0 1 1 1.359-1.374 1.361 1.361 0 0 1-1.359 1.374zm6.293 0a1.374 1.374 0 1 1 1.359-1.374 1.394 1.394 0 0 1-1.36 1.374z" transform="translate(-261.883 -186.94)" style="fill:#8ca4c9"/>
    </g>
</svg>
