<svg data-name="Notifications icon" xmlns="http://www.w3.org/2000/svg" width="18" height="20" viewBox="0 0 18 20">
    <g data-name="notification icon">
        <path data-name="Path 33871" d="M210.283 95.137a1.564 1.564 0 0 0-1.587 1.527v.661c-.608.193-4.756 1.576-5.293 5.376a.408.408 0 0 0 0 .059v6.84l-1.962 1.738a.431.431 0 0 0-.114.509.534.534 0 0 0 .486.291h16.945a.534.534 0 0 0 .489-.289.43.43 0 0 0-.113-.511l-1.962-1.738v-6.84a.412.412 0 0 0 0-.059c-.536-3.8-4.685-5.183-5.293-5.376v-.661a1.564 1.564 0 0 0-1.587-1.527z" transform="translate(-201.283 -95.137)" style="fill:#8ca4c9"/>
        <path data-name="Path 33872" d="M315.5 421.13a.46.46 0 0 0-.5.4 2.05 2.05 0 0 0 4 0 .459.459 0 0 0-.5-.4z" transform="translate(-307.995 -403.13)" style="fill:#8ca4c9"/>
    </g>
</svg>
