<svg xmlns="http://www.w3.org/2000/svg" width="21.866" height="21.842" viewBox="0 0 21.866 21.842">
    <path data-name="Path 735" d="M134.7 90.323a2.634 2.634 0 0 0 0-3.716l-1.552-1.552a2.634 2.634 0 0 0-3.717 0l-.766.766c-1.686 1.686-1.942 6.445 4.261 12.647 3.966 3.966 7.341 5.291 9.7 5.291a4.1 4.1 0 0 0 2.946-1.03l.766-.766a2.632 2.632 0 0 0 0-3.718l-1.552-1.552a2.633 2.633 0 0 0-3.718 0l-.752.752a1.97 1.97 0 0 1-2.778 0l-3.594-3.594a1.968 1.968 0 0 1 0-2.778zm-1.221 4 3.594 3.594a2.634 2.634 0 0 0 3.716 0l.752-.752a1.967 1.967 0 0 1 2.778 0l1.552 1.552a1.968 1.968 0 0 1 0 2.778l-.758.757-.125.117c-1.553 1.333-5.924 1.3-11.592-4.37-3.384-3.384-4.542-6.053-4.916-7.7-.46-2.016.037-3.395.655-4.013l.766-.766a1.97 1.97 0 0 1 2.778 0l1.552 1.552a1.969 1.969 0 0 1 0 2.778l-.751.752a2.632 2.632 0 0 0 0 3.718z" transform="translate(-127.112 -82.418)" style="fill:#9263cd;stroke:#9263cd"/>
    <path data-name="Path 736" d="M355.312 69.365h.008a.366.366 0 0 0 .367-.357 11.011 11.011 0 0 0-11.372-11.373.366.366 0 0 0-.357.375.371.371 0 0 0 .375.357 10.278 10.278 0 0 1 10.623 10.623.363.363 0 0 0 .356.375z" transform="translate(-334.325 -57.132)" style="fill:#9263cd;stroke:#9263cd"/>
    <path data-name="Path 737" d="M339.312 129.47a6.995 6.995 0 0 1 7.23 7.229.367.367 0 0 0 .357.375h.008a.366.366 0 0 0 .367-.357 7.728 7.728 0 0 0-7.979-7.979.366.366 0 0 0-.357.375.374.374 0 0 0 .374.357z" transform="translate(-329.059 -125.087)" style="fill:#9263cd;stroke:#9263cd"/>
    <path data-name="Path 738" d="M338.825 198.935a3.568 3.568 0 0 1 3.69 3.69.367.367 0 0 0 .357.375h.008a.366.366 0 0 0 .367-.357 4.3 4.3 0 0 0-4.439-4.439.366.366 0 1 0 .017.731z" transform="translate(-328.301 -191.284)" style="fill:#9263cd;stroke:#9263cd"/>
</svg>
