<svg data-name="Group 4429" xmlns="http://www.w3.org/2000/svg" width="44" height="40" viewBox="0 0 44 40">
    <defs>
        <clipPath id="772acgp5fa">
            <path data-name="Rectangle 2464" style="fill:#9263cd" d="M0 0h44v40H0z"/>
        </clipPath>
    </defs>
    <g data-name="Group 4428" style="clip-path:url(#772acgp5fa)">
        <path data-name="Path 47639" d="M15.99 21.63a2.513 2.513 0 0 0-2.64-2.54h-3.04v-3.96h.63c.33-.01.44-.11.44-.43.01-.21.01-.41 0-.62 0-.29-.1-.4-.4-.4-.36-.01-.71 0-1.07 0H5.05c-.34 0-.43.1-.44.43v.45c0 .47.07.53.53.53h.63v4.01h-1.6c0 .6.01 1.17 0 1.74a.535.535 0 0 0 .18.44.716.716 0 0 1 .23.4c.02.49 0 .99.01 1.49 0 .19-.08.28-.28.28h-.79c-.19 0-.28-.07-.28-.27.01-.51 0-1.02.01-1.52a.309.309 0 0 1 .09-.24.881.881 0 0 0 .3-.83c-.02-.42-.01-.84-.01-1.26a2.116 2.116 0 0 0-.02-.24h-.92A2.531 2.531 0 0 0 0 21.7v2.54a2.275 2.275 0 0 0 .02.26h15.96c0-.08.02-.15.02-.22 0-.88.01-1.76-.01-2.65m-6.42-2.56H6.5v-3.93h3.07z" style="fill:#9263cd"/>
        <path data-name="Path 47640" d="M31 0h5.011c.464 0 .651.173.651.6v1.151c0 .276-.114.375-.414.378-.218 0-.437.009-.655 0s-.285.072-.283.269c.008.992 0 1.984.009 2.975 0 .224-.075.3-.308.279a4.475 4.475 0 0 0-.655 0c-.221.016-.283-.066-.281-.261.007-.977 0-1.954 0-2.932 0-.319-.01-.327-.355-.327h-5.36c-.329 0-.339.009-.339.319v2.91c0 .286 0 .287-.317.288-.218 0-.438-.01-.655 0s-.271-.056-.269-.247c.008-.985 0-1.97 0-2.954 0-.309-.009-.317-.341-.318h-.585c-.246-.006-.368-.1-.372-.328q-.012-.728 0-1.455c0-.249.138-.343.456-.344H31" style="fill:#9263cd"/>
        <path data-name="Path 47641" d="M16 25.52v10.85a2.549 2.549 0 0 1-2.73 2.66 1.7 1.7 0 0 1-.22-.01.292.292 0 0 0-.35.23 1.148 1.148 0 0 1-1.14.75 1.2 1.2 0 0 1-1.09-.81 1.546 1.546 0 0 1-.04-.15H5.58c-.03.07-.05.15-.08.22a1.186 1.186 0 0 1-1.13.74 1.133 1.133 0 0 1-1.08-.76c-.07-.2-.18-.22-.36-.22a2.728 2.728 0 0 1-2.25-.8 2.283 2.283 0 0 1-.67-1.54C0 35.17 0 33.67 0 32.16v-6.65h3.67v3.54a.5.5 0 0 0 .49.5h.02a.5.5 0 0 0 .49-.5v-3.53h6.28v3.52a.506.506 0 0 0 .51.51.5.5 0 0 0 .5-.51v-3.52z" style="fill:#9263cd"/>
        <path data-name="Path 47642" d="M38 19.85v-.5h-.5a.5.5 0 0 1 .5.5" style="fill:#9263cd"/>
        <path data-name="Path 47643" d="M37.5 20.35h.5v-.5a.5.5 0 0 1-.5.5" style="fill:#9263cd"/>
        <path data-name="Path 47644" d="M41.52 7.08q-10.53-.015-21.04.01a2.746 2.746 0 0 0-1.06.21A2.217 2.217 0 0 0 18 9.49q.015 11.22 0 22.44c0 1.3-.01 2.61.02 3.91a2.29 2.29 0 0 0 2.16 2.09c.52.04 1.06.02 1.59.02.08.01.16.01.24.02.24 1.35.89 2 2.03 2.03a2.152 2.152 0 0 0 1.29-.38 1.9 1.9 0 0 0 .83-1.65h9.1A2.011 2.011 0 0 0 37.31 40c1.17.02 1.93-.71 2.1-2.05h.27c.58 0 1.17.02 1.75 0a3.508 3.508 0 0 0 .97-.15 2.268 2.268 0 0 0 1.6-2.29V9.44a2.351 2.351 0 0 0-2.48-2.36M37.5 26H24.51a.5.5 0 1 1 0-1H37.5a.5.5 0 0 1 0 1m.5-5.65H24.49a.5.5 0 0 1 .02-1H38zm-.5-5.07H24.51a.508.508 0 0 1-.5-.5.5.5 0 0 1 .5-.5H37.5a.5.5 0 0 1 0 1" style="fill:#9263cd"/>
        <path data-name="Path 47645" d="M24.512 20.353a.1.1 0 0 0 .018 0h-.036a.1.1 0 0 0 .018 0" style="fill:#9263cd"/>
    </g>
</svg>
