<svg xmlns="http://www.w3.org/2000/svg" width="16" height="22" viewBox="0 0 16 22">
    <defs>
        <clipPath id="7ux78vsvya">
            <path data-name="Rectangle 2258" style="fill:#8ca4c9" d="M0 0h16v22H0z"/>
        </clipPath>
    </defs>
    <g data-name="Group 4050" style="clip-path:url(#7ux78vsvya)">
        <path data-name="Path 47420" d="M15.317 34.06H8.8a.867.867 0 0 0 0 1.73h6.512a.867.867 0 0 0 0-1.73m.1.865c0 .07-.044.129-.1.129H8.806c-.052 0-.1-.058-.1-.128a.148.148 0 0 1 .039-.1.084.084 0 0 1 .058-.026h6.511c.052 0 .1.058.1.128" transform="translate(-4.062 -17.222)" style="fill:#8ca4c9"/>
        <path data-name="Path 47421" d="M11.234 20.076a.354.354 0 0 0-.356-.341H9.6a.36.36 0 0 0-.273.126.351.351 0 0 0-.078.29 3.515 3.515 0 0 0 1.947 2.58.36.36 0 0 0 .392-.058.352.352 0 0 0 .094-.386 7.108 7.108 0 0 1-.444-2.21m-.691.369a7.841 7.841 0 0 0 .167 1.082 2.853 2.853 0 0 1-.657-1.082z" transform="translate(-4.691 -9.978)" style="fill:#8ca4c9"/>
        <path data-name="Path 47422" d="M18.77 12.943a.356.356 0 0 0-.486.445 7.089 7.089 0 0 1 .445 2.21.355.355 0 0 0 .356.341h1.282a.355.355 0 0 0 .351-.416 3.512 3.512 0 0 0-1.947-2.58m.649 2.286a7.844 7.844 0 0 0-.167-1.083 2.852 2.852 0 0 1 .658 1.083z" transform="translate(-9.271 -6.527)" style="fill:#8ca4c9"/>
        <path data-name="Path 47423" d="M16.116 19.846a.357.357 0 0 0-.258-.111H14.32a.355.355 0 0 0-.355.376 4.809 4.809 0 0 0 .877 2.826.356.356 0 0 0 .5 0 4.812 4.812 0 0 0 .875-2.825.351.351 0 0 0-.1-.264m-.645.6a5.3 5.3 0 0 1-.382 1.561 5.3 5.3 0 0 1-.382-1.561z" transform="translate(-7.089 -9.978)" style="fill:#8ca4c9"/>
        <path data-name="Path 47424" d="M20.364 19.736h-1.281a.354.354 0 0 0-.356.341 7.042 7.042 0 0 1-.446 2.21.356.356 0 0 0 .486.445 3.513 3.513 0 0 0 1.947-2.579.355.355 0 0 0-.351-.416m-.456.709a2.861 2.861 0 0 1-.655 1.08 7.818 7.818 0 0 0 .166-1.08z" transform="translate(-9.27 -9.979)" style="fill:#8ca4c9"/>
        <path data-name="Path 47425" d="M11.558 10.137a4.4 4.4 0 0 0-3.2 1.313 4.588 4.588 0 0 0 0 6.519 4.394 4.394 0 0 0 3.13 1.314h.13a4.392 4.392 0 0 0 3.13-1.314 4.588 4.588 0 0 0 0-6.519 4.386 4.386 0 0 0-3.191-1.313M15.4 14.7a3.976 3.976 0 0 1-1.153 2.765 3.681 3.681 0 0 1-2.623 1.1h-.071a3.669 3.669 0 0 1-2.682-1.1 3.879 3.879 0 0 1 0-5.52 3.677 3.677 0 0 1 2.625-1.1h.069a3.67 3.67 0 0 1 2.682 1.1A3.966 3.966 0 0 1 15.4 14.7" transform="translate(-3.554 -5.125)" style="fill:#8ca4c9"/>
        <path data-name="Path 47426" d="M9.6 15.938h1.282a.354.354 0 0 0 .356-.341 7.1 7.1 0 0 1 .445-2.21.356.356 0 0 0-.486-.444 3.515 3.515 0 0 0-1.948 2.579.352.352 0 0 0 .079.291.357.357 0 0 0 .272.126m.457-.709a2.859 2.859 0 0 1 .657-1.082 7.8 7.8 0 0 0-.167 1.082z" transform="translate(-4.691 -6.526)" style="fill:#8ca4c9"/>
        <path data-name="Path 47427" d="M14.061 15.55a.358.358 0 0 0 .258.111h1.539a.356.356 0 0 0 .356-.376 4.822 4.822 0 0 0-.875-2.826.361.361 0 0 0-.5 0 4.811 4.811 0 0 0-.878 2.826.357.357 0 0 0 .1.265m.646-.6a5.3 5.3 0 0 1 .383-1.561 5.305 5.305 0 0 1 .382 1.561z" transform="translate(-7.089 -6.249)" style="fill:#8ca4c9"/>
        <path data-name="Path 47428" d="M15.206.56a2.23 2.23 0 0 0-1.8-.536L2.039 1.676c-.027 0-.047.013-.039.015a2.286 2.286 0 0 0-2 2.271V19.7A2.288 2.288 0 0 0 2.271 22h11.457A2.294 2.294 0 0 0 16 19.674V2.326A2.345 2.345 0 0 0 15.206.56m-8 1.1 6.307-.913a1.52 1.52 0 0 1 1.219.364 1.616 1.616 0 0 1 .544 1.182 2.229 2.229 0 0 0-1.547-.629zm8.072 2.3V19.7a1.56 1.56 0 0 1-1.548 1.569H2.271A1.56 1.56 0 0 1 .723 19.7V3.962a1.56 1.56 0 0 1 1.548-1.568h11.457a1.56 1.56 0 0 1 1.548 1.568" style="fill:#8ca4c9"/>
    </g>
</svg>
