<svg data-name="Passport visa and health icon" xmlns="http://www.w3.org/2000/svg" width="22" height="22" viewBox="0 0 22 22">
    <defs>
        <clipPath id="co9vahhf6a">
            <path data-name="Rectangle 2406" style="fill:none" d="M0 0h22v22H0z"/>
        </clipPath>
    </defs>
    <g data-name="Group 4355" style="clip-path:url(#co9vahhf6a)">
        <path data-name="Path 47539" d="M6.44 1.66h-.01m13.49-.26C19.59.49 18.25 0 16.88 0a4.867 4.867 0 0 0-2.11.45l-1.96.95-1.17.57-1.71-.57L6.76.34a1.32 1.32 0 0 0-.39-.06 1.255 1.255 0 0 0-.51.1L4.8.88a.94.94 0 0 0-.5.52.509.509 0 0 0-.06.21.814.814 0 0 0 .45.79L7.5 4.07 4.24 5.8l-2.13-.56a1.15 1.15 0 0 0-.41-.08.989.989 0 0 0-.3.04 1.8 1.8 0 0 0-.21.08l-.61.27a.928.928 0 0 0-.56.65.772.772 0 0 0-.02.15.782.782 0 0 0 .31.61l1.09.86 2.08 1.64a2.4 2.4 0 0 0 1.51.54h.06c.1 0 .21-.01.31-.02A2.344 2.344 0 0 0 6 9.8l12.99-6.53c.75-.48.89-.65.98-1.14a1.363 1.363 0 0 0-.05-.73m-1.62.65L5.4 8.53a.763.763 0 0 1-.25.06.378.378 0 0 1-.12.01H5a1.013 1.013 0 0 1-.66-.24L2.28 6.73l1.6.42a1.487 1.487 0 0 0 .36.05 1.485 1.485 0 0 0 .65-.16l3.27-1.73a1.4 1.4 0 0 0 .06-2.44L6.3 1.72l.08-.03L11.2 3.3a1.308 1.308 0 0 0 .44.07 1.434 1.434 0 0 0 .61-.14l3.16-1.53a3.371 3.371 0 0 1 1.47-.3 2.734 2.734 0 0 1 1.71.45c-.06.04-.15.11-.29.2" style="fill:#fff"/>
        <path data-name="Path 47540" d="M11.14 9.2a5 5 0 1 0 5 5 5 5 0 0 0-5-5m3.5 3.17h-1.52a7.694 7.694 0 0 0-.47-1.83 4.074 4.074 0 0 1 1.99 1.83m-3.5-2.14c.19 0 .66.73.89 2.12h-1.76c.24-1.39.69-2.12.87-2.12m-3.87 4.72a6.675 6.675 0 0 1-.07-.77v-.01a3.94 3.94 0 0 1 .07-.77h1.8c-.02.26-.02.52-.02.77s0 .52.02.78zM7.66 16h1.53a7.773 7.773 0 0 0 .47 1.84 4.115 4.115 0 0 1-2-1.84m1.56-3.63H7.69a3.845 3.845 0 0 1 1.99-1.82 7.479 7.479 0 0 0-.46 1.82m1.92 5.75c-.18 0-.65-.73-.89-2.12h1.76c-.21 1.39-.66 2.12-.87 2.12m1.01-3.17h-1.99a6.525 6.525 0 0 1-.03-.78c0-.28.03-.54.03-.77h1.99a6.439 6.439 0 0 1 .03.77c0 .29-.03.54-.03.78m.47 2.89a7.773 7.773 0 0 0 .47-1.84h1.52a3.924 3.924 0 0 1-1.99 1.84m.61-2.89a6.523 6.523 0 0 0 .03-.77 6.78 6.78 0 0 0-.03-.78h1.79a5.179 5.179 0 0 1 .09.78 3.94 3.94 0 0 1-.07.77z" style="fill:#fff"/>
        <path data-name="Path 47541" d="M21 0h-4.12a4.867 4.867 0 0 0-2.11.45l-1.96.95h7.79v19.2H1.4V5.2a1.8 1.8 0 0 0-.21.08l-.61.27a.928.928 0 0 0-.56.65.772.772 0 0 0-.02.15V21a1 1 0 0 0 1 1h20a1 1 0 0 0 1-1V1a1 1 0 0 0-1-1M6.76.34a1.32 1.32 0 0 0-.39-.06 1.255 1.255 0 0 0-.51.1L4.8.88a.94.94 0 0 0-.5.52h5.63z" style="fill:#fff"/>
    </g>
</svg>
