<svg xmlns="http://www.w3.org/2000/svg" width="17" height="17" viewBox="0 0 17 17">
    <path data-name="Path 388" d="M89.819 0A2.731 2.731 0 0 1 92.6 2.72a3.813 3.813 0 0 1-.217 1.217q-1.116 2.352-2.244 4.707a.356.356 0 0 1-.314.2h-4.858a1.53 1.53 0 1 0 0 3.06h2.6a2.551 2.551 0 1 1 0 5.1h-8.845a.356.356 0 0 1-.314-.2c-.844-1.766-1.727-3.519-2.564-5.286A4.048 4.048 0 0 1 75.6 10.2a3.123 3.123 0 0 1 6.245 0 4.07 4.07 0 0 1-.244 1.317q-1.159 2.4-2.331 4.8h8.3a1.87 1.87 0 1 0 0-3.74h-2.6a2.21 2.21 0 1 1 0-4.42h4.31c-.669-1.409-1.354-2.812-2.011-4.223a3.837 3.837 0 0 1-.217-1.217A2.722 2.722 0 0 1 89.819 0zm0 .68a2 2 0 0 0-2.076 2.04 3.9 3.9 0 0 0 .174.977c.632 1.332 1.272 2.664 1.908 4 .622-1.338 1.265-2.631 1.908-4a3.887 3.887 0 0 0 .174-.977A2.011 2.011 0 0 0 89.819.68zm.005.85a1.208 1.208 0 0 1 1.214 1.19 1.215 1.215 0 0 1-2.429 0 1.208 1.208 0 0 1 1.215-1.19zm0 .68a.51.51 0 1 0 .52.51.51.51 0 0 0-.52-.51zm-11.1 5.61a2.368 2.368 0 0 0-2.434 2.38 3.924 3.924 0 0 0 .2 1.073q1.108 2.3 2.228 4.59c.728-1.536 1.506-3.085 2.228-4.59a3.941 3.941 0 0 0 .2-1.073 2.358 2.358 0 0 0-2.423-2.38zm-.005.85a1.53 1.53 0 1 1-1.561 1.53 1.551 1.551 0 0 1 1.564-1.53zm0 .68a.85.85 0 1 0 .867.85.854.854 0 0 0-.864-.85z" transform="translate(-75.6)" style="fill:#8ca4c9"/>
</svg>
