<svg data-name="PDF icon" xmlns="http://www.w3.org/2000/svg" width="24" height="24" viewBox="0 0 24 24">
    <path data-name="Path 2853" d="M200.479 105.983h-.371v-5.876l-5.959-6.629h-12.166a3.161 3.161 0 0 0-3.165 3.15v17.7a3.161 3.161 0 0 0 3.165 3.15h14.96a3.161 3.161 0 0 0 3.165-3.15v-.011h.371a2.335 2.335 0 0 0 2.338-2.327v-3.68a2.335 2.335 0 0 0-2.338-2.327zm-5.913-9.79 3.1 3.45h-3.1zm4.034 18.134a1.655 1.655 0 0 1-1.657 1.649h-14.96a1.655 1.655 0 0 1-1.657-1.649v-17.7a1.655 1.655 0 0 1 1.657-1.649h11.075v6.165h5.542v4.838h-7.89a2.335 2.335 0 0 0-2.338 2.327v3.679a2.336 2.336 0 0 0 2.338 2.327h7.89zm2.709-2.339a.829.829 0 0 1-.83.826h-9.769a.829.829 0 0 1-.83-.826v-3.678a.829.829 0 0 1 .83-.826h9.769a.829.829 0 0 1 .83.826z" transform="translate(-178.818 -93.478)" style="fill:#8ca4c9"/>
    <text transform="translate(12 18)" style="font-size:4px;font-family:Lato-Black,Lato;font-weight:800;letter-spacing:.165em;fill:#8ca4c9"><tspan x="0" y="0">PDF</tspan></text>
</svg>
