<svg xmlns="http://www.w3.org/2000/svg" width="22" height="22" viewBox="0 0 22 22">
    <defs>
        <clipPath id="4yk9tgigja">
            <path data-name="Rectangle 2409" transform="translate(0 -3)" style="fill:#434244" d="M0 0h22v22H0z"/>
        </clipPath>
    </defs>
    <g data-name="people icon" style="opacity:.6">
        <g data-name="Group 4361" transform="translate(0 3)" style="clip-path:url(#4yk9tgigja)">
            <path data-name="Path 47554" d="M5.455 4a2.468 2.468 0 0 0-2.5 2.43 2.468 2.468 0 0 0 2.5 2.43 2.471 2.471 0 0 0 2.51-2.43A2.471 2.471 0 0 0 5.455 4m0 3.86a1.431 1.431 0 1 1 1.478-1.43 1.448 1.448 0 0 1-1.478 1.43" style="stroke:#434244;stroke-width:.3px;fill:#434244"/>
            <path data-name="Path 47555" d="M4.2 15H1.032a4.345 4.345 0 0 1 4.3-4.28 6.63 6.63 0 0 1 .783-.96 3.644 3.644 0 0 0-.664-.05A5.381 5.381 0 0 0 0 15a1.02 1.02 0 0 0 1.032 1h4.424A1.3 1.3 0 0 1 4.2 15" style="stroke:#434244;stroke-width:.3px;fill:#434244"/>
            <path data-name="Path 47556" d="M16.545 4a2.477 2.477 0 0 0-2.51 2.43 2.511 2.511 0 0 0 5.02 0A2.477 2.477 0 0 0 16.545 4m0 3.86a1.431 1.431 0 1 1 1.478-1.43 1.457 1.457 0 0 1-1.478 1.43" style="stroke:#434244;stroke-width:.3px;fill:#434244"/>
            <path data-name="Path 47557" d="M16.545 9.71a4.294 4.294 0 0 0-.506.03 6.873 6.873 0 0 1 .8.98 4.353 4.353 0 0 1 4.13 4.28h-2.986a1.3 1.3 0 0 1-1.269 1h4.255A1.02 1.02 0 0 0 22 15a5.38 5.38 0 0 0-5.455-5.29" style="stroke:#434244;stroke-width:.3px;fill:#434244"/>
            <path data-name="Path 47558" d="M18.032 14.669a.946.946 0 0 1-.05.33h-.753a6.281 6.281 0 0 0-1.538-4.14l-.059-.06a5.407 5.407 0 0 0-.853-.79c-.01 0-.01-.01-.02-.01a5.967 5.967 0 0 0-3.67-1.25 6.036 6.036 0 0 0-3.74 1.29c-.01.01-.019.01-.029.02a5.934 5.934 0 0 0-.814.77c-.019.02-.039.05-.059.07A6.362 6.362 0 0 0 4.939 15H4.2a.945.945 0 0 1-.049-.33 7.045 7.045 0 0 1 1.19-3.95 6.63 6.63 0 0 1 .783-.96 6.951 6.951 0 0 1 10.723.96 7.045 7.045 0 0 1 1.19 3.95" style="stroke:#434244;stroke-width:.3px;fill:#434244"/>
            <path data-name="Path 47559" d="M11.089 0a3.24 3.24 0 1 0 3.194 3.24A3.222 3.222 0 0 0 11.089 0m0 5.371a2.111 2.111 0 0 1-2.1-2.131 2.1 2.1 0 1 1 4.2 0 2.118 2.118 0 0 1-2.1 2.131" style="stroke:#434244;stroke-width:.3px;fill:#434244"/>
            <path data-name="Path 47560" d="M5.455 10.71a.479.479 0 0 0-.119.01 7.045 7.045 0 0 0-1.19 3.95.969.969 0 0 0 .054.33h.744a6.367 6.367 0 0 1 1.508-4.1c.02-.02.04-.05.059-.07a4.515 4.515 0 0 0-1.051-.12" style="stroke:#434244;stroke-width:.3px;fill:#434244"/>
            <path data-name="Path 47561" d="M17.983 15a1.3 1.3 0 0 1-1.27 1H5.455A1.3 1.3 0 0 1 4.2 15z" style="stroke:#434244;stroke-width:.3px;fill:#434244"/>
        </g>
    </g>
</svg>
