<svg xmlns="http://www.w3.org/2000/svg" width="22" height="22" viewBox="0 0 22 22">
    <defs>
        <clipPath id="pyfde1e75a">
            <path data-name="Rectangle 2415" style="fill:#434244" d="M0 0h22v22H0z"/>
        </clipPath>
    </defs>
    <g data-name="Settings icon" style="opacity:.6">
        <g data-name="Group 4371" style="clip-path:url(#pyfde1e75a)">
            <path data-name="Path 47579" d="M21.341 8.461h-1.587a9.072 9.072 0 0 0-.77-1.854l1.123-1.124a.658.658 0 0 0 0-.931l-2.658-2.66a.681.681 0 0 0-.932 0l-1.123 1.125a9.023 9.023 0 0 0-1.856-.77V.658A.658.658 0 0 0 12.88 0H9.119a.659.659 0 0 0-.658.658v1.589a9.038 9.038 0 0 0-1.855.77L5.482 1.892a.679.679 0 0 0-.931 0l-2.659 2.66a.658.658 0 0 0 0 .931l1.124 1.124a9.132 9.132 0 0 0-.771 1.854H.658A.658.658 0 0 0 0 9.12v3.76a.658.658 0 0 0 .658.659h1.587a9.164 9.164 0 0 0 .771 1.855l-1.124 1.124a.658.658 0 0 0 0 .931l2.659 2.659a.658.658 0 0 0 .931 0l1.124-1.124a9.038 9.038 0 0 0 1.855.77v1.588a.659.659 0 0 0 .658.658h3.761a.658.658 0 0 0 .658-.658v-1.588a9.023 9.023 0 0 0 1.856-.77l1.123 1.124a.66.66 0 0 0 .932 0l2.658-2.659a.658.658 0 0 0 0-.931l-1.123-1.124a9.1 9.1 0 0 0 .77-1.855h1.587A.659.659 0 0 0 22 12.88V9.12a.659.659 0 0 0-.659-.659m-.658 3.761h-1.439a.658.658 0 0 0-.641.512 7.754 7.754 0 0 1-1 2.414.657.657 0 0 0 .091.816l1.019 1.019-1.728 1.728-1.019-1.019a.655.655 0 0 0-.816-.091 7.746 7.746 0 0 1-2.414 1 .658.658 0 0 0-.512.642v1.438H9.778v-1.436a.658.658 0 0 0-.513-.642 7.751 7.751 0 0 1-2.413-1 .657.657 0 0 0-.816.091l-1.02 1.019-1.728-1.73 1.02-1.019a.656.656 0 0 0 .09-.816 7.728 7.728 0 0 1-1-2.414.658.658 0 0 0-.642-.512h-1.44V9.778h1.439a.658.658 0 0 0 .645-.512 7.723 7.723 0 0 1 1-2.413.656.656 0 0 0-.09-.816L3.288 5.018l1.728-1.729 1.02 1.02a.659.659 0 0 0 .816.091 7.751 7.751 0 0 1 2.413-1 .658.658 0 0 0 .513-.642V1.317h2.444v1.439a.658.658 0 0 0 .512.642 7.746 7.746 0 0 1 2.414 1 .657.657 0 0 0 .816-.091l1.019-1.02 1.728 1.729-1.019 1.021a.657.657 0 0 0-.091.816 7.749 7.749 0 0 1 1 2.413.658.658 0 0 0 .641.512h1.439z" style="fill:#434244"/>
            <path data-name="Path 47580" d="M11 5.3a5.7 5.7 0 1 0 5.7 5.7A5.706 5.706 0 0 0 11 5.3m0 9.7a4 4 0 1 1 4-4 4 4 0 0 1-4 4" style="fill:#434244"/>
        </g>
    </g>
</svg>
