<svg xmlns="http://www.w3.org/2000/svg" width="22" height="22" viewBox="0 0 22 22">
    <defs>
        <clipPath id="bmj02heata">
            <path data-name="Rectangle 2403" transform="translate(0 -2)" style="fill:#434244" d="M0 0h22v22H0z"/>
        </clipPath>
    </defs>
    <g data-name="Trip manager icon" style="opacity:.6">
        <g data-name="Group 4349" transform="translate(0 2)" style="clip-path:url(#bmj02heata)">
            <path data-name="Path 47534" d="M8.249 16.288v-12.9l5.5-1.891v4.215a.689.689 0 0 0 1.376 0V1.5l5.5 1.889v3.934a.688.688 0 0 0 1.375 0V3.115a.809.809 0 0 0-.559-.757L14.725.048a.885.885 0 0 0-.575 0L7.562 2.313 1.133.1A.841.841 0 0 0 0 .86v13.77a.808.808 0 0 0 .56.758l6.72 2.3a.892.892 0 0 0 .564 0l4.443-1.472a.608.608 0 0 0 .394-.807.656.656 0 0 0-.81-.359zm-1.406.126-5.77-1.984V1.39l5.77 1.96zm10.08-10.235a5.02 5.02 0 0 0-5 5.028c0 2.691 4.415 6.486 4.6 6.647a.62.62 0 0 0 .4.146.612.612 0 0 0 .4-.146c.189-.161 4.6-3.956 4.6-6.647a5.021 5.021 0 0 0-5-5.028m0 10.381c-1.456-1.328-3.772-3.84-3.772-5.353a3.772 3.772 0 1 1 7.543 0c0 1.513-2.316 4.025-3.771 5.353m0-8.244a2.823 2.823 0 1 0 2.807 2.823 2.818 2.818 0 0 0-2.807-2.823m0 4.411a1.588 1.588 0 1 1 1.577-1.588 1.585 1.585 0 0 1-1.579 1.588" style="fill:#434244"/>
        </g>
    </g>
</svg>
