<svg xmlns="http://www.w3.org/2000/svg" width="36.331" height="26.899" viewBox="0 0 36.331 26.899">
    <path data-name="Path 34834" d="M45.7 89.291a.63.63 0 0 0-.688-.581l-13.252 1.6a2.716 2.716 0 0 0-5.29.01l-13.323-1.608a.63.63 0 0 0-.688.58.651.651 0 0 0 .548.729l5.944.716a1.754 1.754 0 0 0-.436 1.161 1.615 1.615 0 1 0 3.224 0 1.773 1.773 0 0 0-.223-.853l4.888.589a2.732 2.732 0 0 0 5.431-.01l4.81-.578a1.771 1.771 0 0 0-.223.853 1.615 1.615 0 1 0 3.224 0 1.754 1.754 0 0 0-.435-1.162l5.944-.717a.652.652 0 0 0 .547-.729z" transform="translate(-10.27 -88.213)" style="fill:#fff"/>
    <path data-name="Path 34836" d="m44.738 294.53-.048-.122.048.121c-.606-1.59-2.5-.795-3.675-.314a22.95 22.95 0 0 1-5.5.962c-1.9.083-7.181.009-8-2.528 1.3-1.072 8.288 2.347 7.217-1.771-.391-1.944-6-2.848-7.624-2.848-5.167-.362-10.47.006-15.649.006l-1.31 7.427 8.73.344c.446 0 2.642 2.615 3.317 3.007 3.861 2.242 8.606 1.951 12.776 1.025 1.922-.427 10.966-2.137 9.72-5.309.044.113.088.225 0 0z" transform="rotate(-10.02 -1554.48 208.744)" style="fill:#fff"/>
</svg>
