<svg data-name="UAS Logo" xmlns="http://www.w3.org/2000/svg" width="124" height="44" viewBox="0 0 124 44">
    <g data-name="Group 3660">
        <path data-name="Path 34979" d="M5.313 70.126h-.732v-6.344h.732v.882a4.653 4.653 0 0 1 .909-.76 2.084 2.084 0 0 1 1.128-.294 2.873 2.873 0 0 1 1.086.2 1.853 1.853 0 0 1 .842.7 1.585 1.585 0 0 1 .274.7 6.5 6.5 0 0 1 .042.754v4.152h-.732v-4.14a1.9 1.9 0 0 0-.377-1.276 1.6 1.6 0 0 0-1.257-.429 1.779 1.779 0 0 0-.622.1 1.948 1.948 0 0 0-.506.275 1.843 1.843 0 0 0-.629.857 2.381 2.381 0 0 0-.134.588 6.848 6.848 0 0 0-.024.612z" transform="translate(-2.057 -28.625)" style="fill:#434244"/>
        <path data-name="Path 34980" d="M17.749 68.848c-.09.016-.207.045-.354.086a1.821 1.821 0 0 1-.488.061 1.161 1.161 0 0 1-.836-.276 1.346 1.346 0 0 1-.287-.986v-4.642H14.9v-.612h.89v-1.764h.732v1.764H17.7v.612h-1.183v4.348c0 .155 0 .29.012.4a.68.68 0 0 0 .073.282.354.354 0 0 0 .189.16 1.053 1.053 0 0 0 .36.048 1.86 1.86 0 0 0 .3-.024q.153-.025.3-.061z" transform="translate(-6.686 -27.322)" style="fill:#434244"/>
        <path data-name="Path 34981" d="M21.54 67.125a3.464 3.464 0 0 0 .134.974 2.357 2.357 0 0 0 .4.8 1.915 1.915 0 0 0 .665.539 2.038 2.038 0 0 0 .927.2 2.014 2.014 0 0 0 1.232-.38 1.831 1.831 0 0 0 .683-1.077h.819a3.952 3.952 0 0 1-.354.839 2.583 2.583 0 0 1-.549.674 2.356 2.356 0 0 1-.781.447 3.148 3.148 0 0 1-1.049.16 3.049 3.049 0 0 1-1.305-.257 2.458 2.458 0 0 1-.9-.7 2.979 2.979 0 0 1-.525-1.053 4.809 4.809 0 0 1-.17-1.3 4.167 4.167 0 0 1 .2-1.311 3.333 3.333 0 0 1 .573-1.071 2.664 2.664 0 0 1 .909-.723 2.733 2.733 0 0 1 1.22-.263 2.516 2.516 0 0 1 2.05.9 3.969 3.969 0 0 1 .731 2.615zm4.123-.612a2.927 2.927 0 0 0-.128-.876 2.047 2.047 0 0 0-.379-.71 1.794 1.794 0 0 0-.628-.477 2.012 2.012 0 0 0-.866-.178 1.923 1.923 0 0 0-.86.183 1.975 1.975 0 0 0-.634.49 2.479 2.479 0 0 0-.421.711 3.3 3.3 0 0 0-.207.857z" transform="translate(-9.319 -28.625)" style="fill:#434244"/>
        <path data-name="Path 34982" d="M33.621 70.126h-.732v-6.344h.732v1.188h.024a2.127 2.127 0 0 1 .787-1.06 2.389 2.389 0 0 1 1.275-.3v.8a2.131 2.131 0 0 0-1.025.2 1.686 1.686 0 0 0-.64.563 2.239 2.239 0 0 0-.33.839 5.46 5.46 0 0 0-.091 1.01z" transform="translate(-14.763 -28.625)" style="fill:#434244"/>
        <path data-name="Path 34983" d="M40.482 70.126h-.732v-6.344h.732v.882a4.669 4.669 0 0 1 .909-.76 2.084 2.084 0 0 1 1.128-.294 2.871 2.871 0 0 1 1.086.2 1.853 1.853 0 0 1 .842.7 1.586 1.586 0 0 1 .274.7 6.385 6.385 0 0 1 .042.754v4.152h-.731v-4.14a1.9 1.9 0 0 0-.378-1.286 1.6 1.6 0 0 0-1.257-.429 1.779 1.779 0 0 0-.622.1 1.957 1.957 0 0 0-.506.275 1.847 1.847 0 0 0-.628.857 2.358 2.358 0 0 0-.134.588q-.024.281-.024.612z" transform="translate(-17.844 -28.625)" style="fill:#434244"/>
        <path data-name="Path 34984" d="M53.859 66.427c.138-.016.3-.041.494-.074a1.845 1.845 0 0 0 .47-.135.39.39 0 0 0 .226-.288 1.838 1.838 0 0 0 .042-.373 1.256 1.256 0 0 0-.36-.925 1.675 1.675 0 0 0-1.214-.361 3.343 3.343 0 0 0-.7.067 1.5 1.5 0 0 0-.554.233 1.284 1.284 0 0 0-.391.441 1.87 1.87 0 0 0-.2.692h-.744a2.27 2.27 0 0 1 .256-.961 1.942 1.942 0 0 1 .567-.649 2.336 2.336 0 0 1 .805-.367 3.918 3.918 0 0 1 .969-.117 3.728 3.728 0 0 1 .9.1 2.087 2.087 0 0 1 .732.331 1.539 1.539 0 0 1 .488.607 2.194 2.194 0 0 1 .177.931v3.454q0 .429.153.545t.616-.055v.577l-.25.073a1.141 1.141 0 0 1-.324.05 1.432 1.432 0 0 1-.329-.037.568.568 0 0 1-.293-.116.724.724 0 0 1-.176-.221.9.9 0 0 1-.091-.282 2.03 2.03 0 0 1-.025-.325 3.191 3.191 0 0 1-1.061.784 3.114 3.114 0 0 1-1.293.269 2.876 2.876 0 0 1-.8-.111 1.922 1.922 0 0 1-.677-.343 1.7 1.7 0 0 1-.463-.569 1.754 1.754 0 0 1-.171-.8q0-1.617 2.208-1.911zm1.232.367a3.567 3.567 0 0 1-.939.257q-.475.061-.951.1a2.674 2.674 0 0 0-1.312.379 1.09 1.09 0 0 0-.47.967 1.047 1.047 0 0 0 .116.508 1.065 1.065 0 0 0 .3.355 1.283 1.283 0 0 0 .439.208 1.926 1.926 0 0 0 .506.067 3.306 3.306 0 0 0 .854-.11 2.305 2.305 0 0 0 .737-.337 1.719 1.719 0 0 0 .519-.576 1.668 1.668 0 0 0 .2-.827z" transform="translate(-22.732 -28.625)" style="fill:#434244"/>
        <path data-name="Path 34985" d="M64.382 68.848c-.09.016-.207.045-.354.086a1.818 1.818 0 0 1-.488.061 1.159 1.159 0 0 1-.835-.276 1.344 1.344 0 0 1-.287-.986v-4.642h-.891v-.612h.891v-1.764h.731v1.764h1.183v.612H63.15v4.348q0 .233.013.4a.68.68 0 0 0 .073.282.355.355 0 0 0 .19.16 1.049 1.049 0 0 0 .359.048 1.867 1.867 0 0 0 .3-.024q.152-.025.3-.061z" transform="translate(-27.619 -27.322)" style="fill:#434244"/>
        <path data-name="Path 34986" d="M67.725 59.423h.805v1.09h-.805zm.037 2.474h.732v6.344h-.732z" transform="translate(-30.401 -26.74)" style="fill:#434244"/>
        <path data-name="Path 34987" d="M73.841 70.3a3.272 3.272 0 0 1-1.141-.221 2.55 2.55 0 0 1-.927-.624 3.014 3.014 0 0 1-.628-1.041 4.186 4.186 0 0 1-.231-1.457 4.484 4.484 0 0 1 .183-1.3 3.075 3.075 0 0 1 .549-1.059 2.61 2.61 0 0 1 .915-.717 2.931 2.931 0 0 1 1.281-.263 2.962 2.962 0 0 1 1.293.263 2.65 2.65 0 0 1 .915.71 2.942 2.942 0 0 1 .542 1.06 4.7 4.7 0 0 1 .177 1.311 4.258 4.258 0 0 1-.207 1.372 3.094 3.094 0 0 1-.591 1.053 2.609 2.609 0 0 1-.927.68 2.948 2.948 0 0 1-1.2.239m2.147-3.343a4.373 4.373 0 0 0-.122-1.054 2.516 2.516 0 0 0-.378-.851 1.824 1.824 0 0 0-.659-.57 2.133 2.133 0 0 0-.988-.208 1.993 1.993 0 0 0-.982.227 1.927 1.927 0 0 0-.665.6 2.639 2.639 0 0 0-.378.857 4.053 4.053 0 0 0-.122 1 3.968 3.968 0 0 0 .141 1.084 2.541 2.541 0 0 0 .408.851 1.833 1.833 0 0 0 .671.551 2.087 2.087 0 0 0 .927.2 1.993 1.993 0 0 0 .982-.227 1.9 1.9 0 0 0 .665-.607 2.728 2.728 0 0 0 .378-.857 4 4 0 0 0 .122-.992" transform="translate(-31.832 -28.625)" style="fill:#434244"/>
        <path data-name="Path 34988" d="M83.862 70.126h-.732v-6.344h.732v.882a4.653 4.653 0 0 1 .909-.76 2.084 2.084 0 0 1 1.129-.294 2.873 2.873 0 0 1 1.086.2 1.853 1.853 0 0 1 .842.7 1.585 1.585 0 0 1 .274.7 6.5 6.5 0 0 1 .042.754v4.152h-.732v-4.14a1.9 1.9 0 0 0-.378-1.286 1.6 1.6 0 0 0-1.257-.429 1.779 1.779 0 0 0-.622.1 1.948 1.948 0 0 0-.506.275 1.843 1.843 0 0 0-.629.857 2.381 2.381 0 0 0-.134.588 6.848 6.848 0 0 0-.024.612z" transform="translate(-37.316 -28.625)" style="fill:#434244"/>
        <path data-name="Path 34989" d="M97.24 66.427c.138-.016.3-.041.494-.074a1.852 1.852 0 0 0 .47-.135.391.391 0 0 0 .226-.288 1.838 1.838 0 0 0 .042-.373 1.256 1.256 0 0 0-.36-.925 1.677 1.677 0 0 0-1.214-.361 3.343 3.343 0 0 0-.7.067 1.511 1.511 0 0 0-.555.233 1.276 1.276 0 0 0-.39.441 1.869 1.869 0 0 0-.2.692h-.744a2.278 2.278 0 0 1 .256-.961 1.943 1.943 0 0 1 .568-.649 2.336 2.336 0 0 1 .805-.367 3.918 3.918 0 0 1 .969-.117 3.728 3.728 0 0 1 .9.1 2.092 2.092 0 0 1 .732.331 1.539 1.539 0 0 1 .488.607 2.194 2.194 0 0 1 .177.931v3.454q0 .429.152.545t.616-.055v.577l-.25.073a1.141 1.141 0 0 1-.324.05 1.432 1.432 0 0 1-.329-.037.566.566 0 0 1-.293-.116.717.717 0 0 1-.177-.221.924.924 0 0 1-.091-.282 2.1 2.1 0 0 1-.024-.325 3.191 3.191 0 0 1-1.061.784 3.117 3.117 0 0 1-1.293.269 2.874 2.874 0 0 1-.8-.111 1.922 1.922 0 0 1-.677-.343 1.692 1.692 0 0 1-.463-.569 1.754 1.754 0 0 1-.171-.8q0-1.617 2.208-1.911zm1.232.367a3.567 3.567 0 0 1-.939.257q-.476.061-.952.1a2.672 2.672 0 0 0-1.311.379 1.09 1.09 0 0 0-.47.967 1.048 1.048 0 0 0 .116.508 1.058 1.058 0 0 0 .3.355 1.283 1.283 0 0 0 .439.208 1.926 1.926 0 0 0 .506.067 3.3 3.3 0 0 0 .854-.11 2.3 2.3 0 0 0 .738-.337 1.719 1.719 0 0 0 .519-.576 1.668 1.668 0 0 0 .2-.827z" transform="translate(-42.204 -28.625)" style="fill:#434244"/>
        <path data-name="Rectangle 2009" transform="translate(0 32.683)" style="fill:#434244" d="M0 0h.826v8.819H0z"/>
        <path data-name="Rectangle 2010" transform="translate(58.56 32.683)" style="fill:#434244" d="M0 0h.732v8.819H0z"/>
        <path data-name="Path 34990" d="M114.2 59.423h6.4v.71h-2.781v8.109h-.829v-8.109h-2.79z" transform="translate(-51.265 -26.741)" style="fill:#434244"/>
        <path data-name="Path 34991" d="M125.67 70.126h-.732v-6.344h.732v1.188h.024a2.127 2.127 0 0 1 .787-1.06 2.39 2.39 0 0 1 1.275-.3v.8a2.129 2.129 0 0 0-1.024.2 1.688 1.688 0 0 0-.64.563 2.238 2.238 0 0 0-.33.839 5.46 5.46 0 0 0-.091 1.01z" transform="translate(-56.084 -28.625)" style="fill:#434244"/>
        <path data-name="Path 34992" d="M131.136 59.423h.805v1.09h-.805zm.036 2.474h.732v6.344h-.732z" transform="translate(-58.866 -26.74)" style="fill:#434244"/>
        <path data-name="Path 34993" d="M135.962 72.624h-.732v-8.842h.732V64.9h.024a2.162 2.162 0 0 1 .409-.551 2.384 2.384 0 0 1 .549-.4 2.909 2.909 0 0 1 .616-.245 2.378 2.378 0 0 1 .622-.086 3 3 0 0 1 1.305.257 2.432 2.432 0 0 1 .885.7 2.874 2.874 0 0 1 .506 1.06 5.2 5.2 0 0 1 .159 1.31 4.709 4.709 0 0 1-.171 1.274 3.172 3.172 0 0 1-.518 1.072 2.571 2.571 0 0 1-.878.735 2.678 2.678 0 0 1-1.25.276 2.905 2.905 0 0 1-1.287-.3 2.274 2.274 0 0 1-.97-.888zm0-5.646a3.536 3.536 0 0 0 .146 1.022 2.665 2.665 0 0 0 .421.845 2.07 2.07 0 0 0 .671.576 1.851 1.851 0 0 0 .9.214 2.037 2.037 0 0 0 .982-.226 1.934 1.934 0 0 0 .689-.619 2.681 2.681 0 0 0 .391-.912 4.183 4.183 0 0 0 .1-1.121 3.136 3.136 0 0 0-.165-1.059 2.258 2.258 0 0 0-.457-.778 1.955 1.955 0 0 0-.683-.484 2.168 2.168 0 0 0-.853-.165 1.967 1.967 0 0 0-.915.208 1.933 1.933 0 0 0-.671.57 2.6 2.6 0 0 0-.408.857 3.917 3.917 0 0 0-.141 1.071" transform="translate(-60.703 -28.625)" style="fill:#434244"/>
        <path data-name="Path 34994" d="M153.232 65.418a2.622 2.622 0 0 0 .262 1 1.969 1.969 0 0 0 .549.668 2.179 2.179 0 0 0 .774.373 3.654 3.654 0 0 0 .939.116 3.118 3.118 0 0 0 1.012-.147 1.915 1.915 0 0 0 .7-.4 1.573 1.573 0 0 0 .4-.582 1.916 1.916 0 0 0 .128-.7 1.384 1.384 0 0 0-.232-.833 1.786 1.786 0 0 0-.6-.52 3.715 3.715 0 0 0-.854-.325q-.483-.122-.988-.239t-.988-.276a3.1 3.1 0 0 1-.854-.429 2.054 2.054 0 0 1-.6-.692 2.212 2.212 0 0 1-.232-1.071 2.192 2.192 0 0 1 .751-1.641 2.753 2.753 0 0 1 .933-.527 3.919 3.919 0 0 1 1.293-.2 3.685 3.685 0 0 1 1.3.208 2.577 2.577 0 0 1 .921.569 2.344 2.344 0 0 1 .549.839 2.819 2.819 0 0 1 .183 1.016h-.793a1.984 1.984 0 0 0-.177-.87 1.633 1.633 0 0 0-.482-.6 2.07 2.07 0 0 0-.7-.343 2.938 2.938 0 0 0-.8-.11 2.826 2.826 0 0 0-1.068.177 1.876 1.876 0 0 0-.689.46 1.551 1.551 0 0 0-.354.624 1.508 1.508 0 0 0-.037.686 1.2 1.2 0 0 0 .342.686 2.158 2.158 0 0 0 .659.423 4.956 4.956 0 0 0 .86.269q.469.1.957.221t.945.276a2.892 2.892 0 0 1 .811.428 1.973 1.973 0 0 1 .567.692 2.342 2.342 0 0 1 .214 1.06 2.292 2.292 0 0 1-.842 1.9 3.7 3.7 0 0 1-2.366.674 4.355 4.355 0 0 1-1.269-.178 2.808 2.808 0 0 1-1.012-.539 2.472 2.472 0 0 1-.665-.894 3.057 3.057 0 0 1-.238-1.256z" transform="translate(-68.423 -26.55)" style="fill:#434244"/>
        <path data-name="Path 34995" d="M170.032 63.922h.732v6.344h-.732v-.882q-.146.172-.33.355a2.488 2.488 0 0 1-.421.337 2.4 2.4 0 0 1-.555.257 2.352 2.352 0 0 1-.732.1 2.778 2.778 0 0 1-1.061-.178 1.734 1.734 0 0 1-.689-.5 1.976 1.976 0 0 1-.378-.741 3.491 3.491 0 0 1-.116-.925v-4.167h.732v4.164a1.86 1.86 0 0 0 .378 1.256 1.572 1.572 0 0 0 1.244.435 1.812 1.812 0 0 0 .811-.178 1.7 1.7 0 0 0 .6-.5 2.375 2.375 0 0 0 .377-.76 3.294 3.294 0 0 0 .135-.967z" transform="translate(-74.404 -28.765)" style="fill:#434244"/>
        <path data-name="Path 34996" d="M178.1 72.624h-.732v-8.842h.732V64.9h.024a2.163 2.163 0 0 1 .409-.551 2.385 2.385 0 0 1 .549-.4 2.909 2.909 0 0 1 .616-.245 2.378 2.378 0 0 1 .623-.086 3 3 0 0 1 1.3.257 2.437 2.437 0 0 1 .885.7 2.883 2.883 0 0 1 .506 1.06 5.2 5.2 0 0 1 .159 1.31 4.732 4.732 0 0 1-.171 1.274 3.152 3.152 0 0 1-.519 1.072 2.564 2.564 0 0 1-.878.735 2.678 2.678 0 0 1-1.25.276 2.909 2.909 0 0 1-1.287-.3 2.268 2.268 0 0 1-.969-.888zm0-5.646a3.5 3.5 0 0 0 .148 1.022 2.653 2.653 0 0 0 .421.845 2.074 2.074 0 0 0 .671.576 1.854 1.854 0 0 0 .9.214 2.043 2.043 0 0 0 .983-.226 1.943 1.943 0 0 0 .689-.619 2.7 2.7 0 0 0 .391-.912 4.183 4.183 0 0 0 .1-1.121 3.137 3.137 0 0 0-.164-1.059 2.249 2.249 0 0 0-.457-.778 1.955 1.955 0 0 0-.683-.484 2.169 2.169 0 0 0-.854-.165 1.964 1.964 0 0 0-.915.208 1.928 1.928 0 0 0-.671.57 2.613 2.613 0 0 0-.409.857 3.939 3.939 0 0 0-.139 1.071" transform="translate(-79.619 -28.625)" style="fill:#434244"/>
        <path data-name="Path 34997" d="M190.784 72.624h-.732v-8.842h.732V64.9h.024a2.162 2.162 0 0 1 .409-.551 2.385 2.385 0 0 1 .549-.4 2.9 2.9 0 0 1 .616-.245 2.377 2.377 0 0 1 .618-.094 3 3 0 0 1 1.305.257 2.436 2.436 0 0 1 .884.7 2.883 2.883 0 0 1 .506 1.06 5.2 5.2 0 0 1 .159 1.31 4.731 4.731 0 0 1-.171 1.274 3.162 3.162 0 0 1-.519 1.072 2.563 2.563 0 0 1-.878.735 2.678 2.678 0 0 1-1.25.276 2.909 2.909 0 0 1-1.287-.3 2.272 2.272 0 0 1-.969-.888zm0-5.646A3.515 3.515 0 0 0 190.93 68a2.663 2.663 0 0 0 .421.845 2.074 2.074 0 0 0 .671.576 1.854 1.854 0 0 0 .9.214 2.04 2.04 0 0 0 .982-.226 1.934 1.934 0 0 0 .689-.619 2.682 2.682 0 0 0 .391-.912 4.162 4.162 0 0 0 .1-1.121 3.136 3.136 0 0 0-.164-1.059 2.257 2.257 0 0 0-.457-.778 1.96 1.96 0 0 0-.683-.484 2.169 2.169 0 0 0-.854-.165 1.964 1.964 0 0 0-.915.208 1.928 1.928 0 0 0-.671.57 2.613 2.613 0 0 0-.409.857 3.938 3.938 0 0 0-.14 1.071" transform="translate(-85.313 -28.625)" style="fill:#434244"/>
        <path data-name="Path 34998" d="M204.755 70.3a3.269 3.269 0 0 1-1.14-.221 2.552 2.552 0 0 1-.928-.624 3 3 0 0 1-.628-1.041 4.173 4.173 0 0 1-.232-1.457 4.5 4.5 0 0 1 .183-1.3 3.084 3.084 0 0 1 .549-1.059 2.615 2.615 0 0 1 .915-.717 2.932 2.932 0 0 1 1.281-.263 2.962 2.962 0 0 1 1.293.263 2.651 2.651 0 0 1 .915.71 2.951 2.951 0 0 1 .543 1.06 4.7 4.7 0 0 1 .177 1.311 4.258 4.258 0 0 1-.208 1.372 3.085 3.085 0 0 1-.591 1.053 2.609 2.609 0 0 1-.927.68 2.946 2.946 0 0 1-1.2.239m2.147-3.343a4.373 4.373 0 0 0-.122-1.054 2.516 2.516 0 0 0-.378-.851 1.824 1.824 0 0 0-.659-.57 2.132 2.132 0 0 0-.988-.208 1.993 1.993 0 0 0-.982.227 1.927 1.927 0 0 0-.665.6 2.64 2.64 0 0 0-.378.857 4.052 4.052 0 0 0-.122 1 3.967 3.967 0 0 0 .14 1.084 2.531 2.531 0 0 0 .409.851 1.827 1.827 0 0 0 .671.551 2.088 2.088 0 0 0 .927.2 2 2 0 0 0 .982-.227 1.9 1.9 0 0 0 .665-.607 2.729 2.729 0 0 0 .378-.857 4 4 0 0 0 .122-.992" transform="translate(-90.598 -28.625)" style="fill:#434244"/>
        <path data-name="Path 34999" d="M214.842 70.126h-.732v-6.344h.732v1.188h.024a2.127 2.127 0 0 1 .787-1.06 2.39 2.39 0 0 1 1.275-.3v.8a2.129 2.129 0 0 0-1.025.2 1.688 1.688 0 0 0-.64.563 2.239 2.239 0 0 0-.33.839 5.461 5.461 0 0 0-.091 1.01z" transform="translate(-96.112 -28.625)" style="fill:#434244"/>
        <path data-name="Path 35000" d="M222.675 68.848c-.09.016-.207.045-.354.086a1.821 1.821 0 0 1-.488.061 1.161 1.161 0 0 1-.836-.276 1.346 1.346 0 0 1-.287-.986v-4.642h-.89v-.612h.89v-1.764h.732v1.764h1.183v.612h-1.183v4.348c0 .155 0 .29.012.4a.68.68 0 0 0 .073.282.354.354 0 0 0 .189.16 1.053 1.053 0 0 0 .36.048 1.86 1.86 0 0 0 .3-.024q.153-.025.3-.061z" transform="translate(-98.675 -27.322)" style="fill:#434244"/>
        <path data-name="Path 35001" d="M27.75 2.5h4.958v13.831a7.577 7.577 0 0 0 .568 3.389q.884 1.893 3.851 1.893 2.951 0 3.835-1.893a7.576 7.576 0 0 0 .568-3.389V2.5h4.958v13.842a11.267 11.267 0 0 1-1.154 5.592Q43.183 25.6 37.127 25.6T28.9 21.934a11.26 11.26 0 0 1-1.155-5.592z" transform="translate(-12.457 -1.125)" style="fill:#434244"/>
        <path data-name="Path 35002" d="M73.557 2.5h5.5l8.234 23.1h-5.27l-1.536-4.748h-8.57L70.337 25.6H65.25zm-.32 14.371H79.2l-2.94-9.09z" transform="translate(-29.291 -1.125)" style="fill:#434244"/>
        <path data-name="Path 35003" d="M111.391 18.277a4.291 4.291 0 0 0 .886 2.243q1.209 1.352 4.142 1.352a9.436 9.436 0 0 0 2.853-.356 2.578 2.578 0 0 0 2.079-2.54 1.855 1.855 0 0 0-1.018-1.679 11.531 11.531 0 0 0-3.231-1.025l-2.519-.52a16.316 16.316 0 0 1-5.1-1.679 5.232 5.232 0 0 1-2.352-4.739 6.136 6.136 0 0 1 2.3-4.887q2.3-1.946 6.759-1.946a10.819 10.819 0 0 1 6.352 1.835A6.4 6.4 0 0 1 125.3 9.66h-4.672a3.127 3.127 0 0 0-1.877-2.808 6.775 6.775 0 0 0-2.9-.549 5.787 5.787 0 0 0-3.075.713 2.228 2.228 0 0 0-1.149 1.991 1.868 1.868 0 0 0 1.133 1.753 14.709 14.709 0 0 0 3.091.906l4.083.906a10.732 10.732 0 0 1 4.024 1.59 5.228 5.228 0 0 1 2.08 4.471 6.141 6.141 0 0 1-2.465 4.984q-2.464 1.983-6.963 1.983a11.894 11.894 0 0 1-7.228-1.954 6.32 6.32 0 0 1-2.632-5.37z" transform="translate(-47.919 -1.125)" style="fill:#434244"/>
        <path data-name="Path 35004" d="m168.844 15.486 1.228 4.54 2.862-8.249zM165.493.243c.422.077.837.169 1.244.285a10.3 10.3 0 0 0-1.244-.285m-1.566-.19c-.085 0-.228-.008-.391-.008.248.008.5.019.744.038a5.717 5.717 0 0 0-.353-.031m12.225 12.878a14.057 14.057 0 0 1-.31 2.832c-2.307 10.58-16.274 13.729-22.923 5.127.039.012 10.021 2.384 15.186-4.738l1.752 6.482 4.085-11.767-12.051 2.361 5.252 2.473c-4.062 4.722-10.237 4.12-10.64 4.085-4.182-.362-6.182-3.511-6.252-7.187v-.012A12.529 12.529 0 0 1 164.579.111a12.938 12.938 0 0 1 2.81.621q.134.041.267.093c.185.063.4.154.585.232l.028.012c.147.062.29.123.434.192a1.067 1.067 0 0 1 .112.054c.329.155.655.331.966.517a12.885 12.885 0 0 1 2.426 1.844l.291.289A16.113 16.113 0 0 1 174.85 7.3a11.267 11.267 0 0 1 .923 2.531c.048.2.092.406.136.606a13.286 13.286 0 0 1 .229 1.875c.012.2.015.409.015.617" transform="translate(-67.446)" style="fill:#434244"/>
        <path data-name="Rectangle 2011" transform="translate(0 29.7)" style="fill:#434244" d="M0 0h124v.55H0z"/>
    </g>
</svg>
