<svg data-name="user managment icon" xmlns="http://www.w3.org/2000/svg" width="22" height="10" viewBox="0 0 22 10">
    <defs>
        <clipPath id="kc44vh93wa">
            <path data-name="Rectangle 2416" style="fill:none" d="M0 0h22v10H0z"/>
        </clipPath>
    </defs>
    <g data-name="Group 4373" style="clip-path:url(#kc44vh93wa)">
        <path data-name="Path 47581" d="M22.1 5a3.972 3.972 0 1 0-3.972 4A3.992 3.992 0 0 0 22.1 5m-6.584 0a2.619 2.619 0 1 1 2.611 2.633A2.616 2.616 0 0 1 15.516 5" transform="translate(-.1)" style="fill:#fff"/>
        <path data-name="Path 47582" d="M12.747 6.588a.585.585 0 0 1 .17.75 4.9 4.9 0 0 1-8.551.3H3.1a1.131 1.131 0 0 0 .066-.413c0-.25-.013-.487-.026-.737h1.554A.579.579 0 0 1 5.2 6.8a3.765 3.765 0 0 0 6.119.838H8.563a2.615 2.615 0 0 1-2.6-2.775 2.657 2.657 0 0 1 2.667-2.5h2.694a3.761 3.761 0 0 0-2.761-1.214A3.8 3.8 0 0 0 5.2 3.2a.578.578 0 0 1-.509.313H.9a7.045 7.045 0 0 0-.8-1.05l-.074-.075L0 2.363h4.366a4.9 4.9 0 0 1 8.551.3.586.586 0 0 1-.17.75.684.684 0 0 1-.353.1H8.563A1.49 1.49 0 0 0 7.085 5.1a1.525 1.525 0 0 0 1.53 1.388h3.792a.664.664 0 0 1 .34.1" style="fill:#fff"/>
    </g>
</svg>
