<svg xmlns="http://www.w3.org/2000/svg" width="19.998" height="15.999" viewBox="0 0 19.998 15.999">
    <path data-name="Icon awesome-user-edit" d="M7 8a4 4 0 1 0-4-4 4 4 0 0 0 4 4zm2.8 1h-.523a5.439 5.439 0 0 1-4.555 0H4.2A4.2 4.2 0 0 0 0 13.2v1.3A1.5 1.5 0 0 0 1.5 16h8.59a1.5 1.5 0 0 1-.081-.666l.212-1.9.037-.347.247-.247 2.415-2.415A4.157 4.157 0 0 0 9.8 9zm1.416 4.54L11 15.446a.5.5 0 0 0 .55.55l1.9-.212 4.309-4.309-2.24-2.24-4.304 4.305zM19.78 8.4 18.6 7.218a.749.749 0 0 0-1.056 0L16.358 8.4l-.128.128 2.244 2.24 1.306-1.306a.753.753 0 0 0 0-1.059z" style="fill:#fff;opacity:.65"/>
</svg>
