<svg data-name="Group 4431" xmlns="http://www.w3.org/2000/svg" width="44" height="22" viewBox="0 0 44 22">
    <g data-name="Group 4432">
        <path data-name="Path 47646" d="M41.791 0H2.208A2.205 2.205 0 0 0 0 2.211V19.79A2.207 2.207 0 0 0 2.211 22H41.79A2.208 2.208 0 0 0 44 19.788V2.21A2.206 2.206 0 0 0 41.791 0" style="fill:#9263cd"/>
        <path data-name="Path 47647" d="M2.394 2.508c.032.108.054.2.085.285q2.913 8.2 5.821 16.4a.292.292 0 0 0 .33.236c1.34-.008 2.681-.012 4.021 0a.406.406 0 0 0 .461-.327q2.844-8.046 5.706-16.084c.058-.165.112-.331.179-.527h-.3c-1.421 0-2.843.006-4.264 0a.356.356 0 0 0-.4.3q-1.6 4.693-3.229 9.379c-.028.081-.063.16-.114.286-.052-.142-.086-.228-.116-.315Q8.951 7.447 7.338 2.757a.324.324 0 0 0-.366-.267c-1.439.01-2.878 0-4.317.006-.08 0-.159.007-.261.012" style="fill:#fff"/>
        <path data-name="Rectangle 2465" transform="translate(20.674 2.515)" style="fill:#fff" d="M0 0h4.578v16.974H0z"/>
        <path data-name="Path 47648" d="M41.285 7.427a5.819 5.819 0 0 0-5.7-4.933c-2.582-.01-5.163 0-7.735 0a2.179 2.179 0 0 0-.264.02v16.968h4.6v-4.834h.688c1.15-.019 2.308.05 3.448-.069a6 6 0 0 0 4.966-7.152M36.028 9.7a1.241 1.241 0 0 1-.425.08c-1.084.009-2.177 0-3.26 0a.782.782 0 0 1-.141-.02V7.387a.5.5 0 0 1 .141-.029c1.093 0 2.195-.01 3.288 0a1.153 1.153 0 0 1 1.14 1.042 1.206 1.206 0 0 1-.743 1.3" style="fill:#fff"/>
    </g>
</svg>
