<svg data-name="Group 4081" xmlns="http://www.w3.org/2000/svg" width="24" height="22" viewBox="0 0 24 22">
    <defs>
        <clipPath id="yna12m51ra">
            <path data-name="Rectangle 2297" style="fill:none" d="M0 0h24v22H0z"/>
        </clipPath>
    </defs>
    <g data-name="Group 4080" style="clip-path:url(#yna12m51ra)">
        <path data-name="Path 47452" d="M11.989 0h8.483c.476 0 .63.143.658.615a2.385 2.385 0 0 0 2.291 2.256c.421.02.579.178.579.591v15.053c0 .434-.152.591-.582.611a2.4 2.4 0 0 0-2.288 2.239c-.032.5-.164.63-.665.631Q17.3 22 14.138 22H3.476c-.406 0-.584-.165-.6-.572a2.385 2.385 0 0 0-2.321-2.3C.166 19.111 0 18.942 0 18.559V3.482c0-.435.148-.588.583-.609A2.4 2.4 0 0 0 2.871.61C2.9.142 3.04 0 3.506 0h8.483zm11.049 18.26V3.952c0-.2-.089-.239-.249-.278a3.182 3.182 0 0 1-2.469-2.442c-.057-.223-.136-.272-.351-.272q-6.853.009-13.706 0H3.75A3.348 3.348 0 0 1 .961 3.744v14.258c0 .19.042.275.247.325a3.177 3.177 0 0 1 2.469 2.441c.058.225.138.272.351.272q6.855-.009 13.706 0h2.513a3.34 3.34 0 0 1 2.791-2.777" style="fill:#8fa3c5"/>
        <path data-name="Path 47453" d="M11.958 14.349H4.371c-.322 0-.533-.151-.574-.4-.052-.315.185-.561.554-.562h15.198c.335 0 .528.114.595.346a.483.483 0 0 1-.5.617c-.507.008-1.015 0-1.522 0h-6.164" style="fill:#8fa3c5"/>
        <path data-name="Path 47454" d="M17.521 5.316c.4 1.906.8 3.8 1.2 5.72H17.8l-.29-1.461h-1.145c-.1.491-.191.977-.285 1.462h-.916l1.3-5.721zm-.539.979h-.03l-.424 2.5h.872l-.422-2.5" style="fill:#8fa3c5"/>
        <path data-name="Path 47455" d="M5.281 5.316H6.3l.828 4.628.827-4.584h1.014l-1.332 5.723H6.576c-.432-1.922-.861-3.836-1.3-5.767" style="fill:#8fa3c5"/>
        <path data-name="Path 47456" d="M8.859 17.215H4.432a1.163 1.163 0 0 1-.3-.023.475.475 0 0 1 .16-.929h8.946a2.47 2.47 0 0 1 .258.007.467.467 0 0 1 .429.493.459.459 0 0 1-.474.451c-.594.008-1.187.005-1.78.005H8.859" style="fill:#8fa3c5"/>
        <path data-name="Path 47457" d="M11.939 10.156c.313.059.6.135.889.162a.742.742 0 0 0 .794-.379.846.846 0 0 0-.084-.965 4.111 4.111 0 0 0-.555-.495c-.219-.186-.455-.354-.658-.556a1.444 1.444 0 0 1-.365-1.648 1.454 1.454 0 0 1 1.375-.953 4.6 4.6 0 0 1 .9.1c.129.019.177.1.139.236-.052.185-.081.377-.118.553a6 6 0 0 0-.647-.132.71.71 0 0 0-.759.349.788.788 0 0 0 .132.91 3.346 3.346 0 0 0 .533.411 2.39 2.39 0 0 1 .944 1.008 1.62 1.62 0 0 1-1.269 2.3 2.5 2.5 0 0 1-1.267-.118c-.118-.043-.175-.1-.127-.245.066-.188.1-.385.144-.539" style="fill:#8fa3c5"/>
        <path data-name="Rectangle 2296" transform="translate(9.949 5.313)" style="fill:#8fa3c5" d="M0 0h.876v5.719H0z"/>
        <path data-name="Path 47458" d="M17.958 17.213h-1.664a.412.412 0 0 1-.443-.277.651.651 0 0 1 .046-.474.569.569 0 0 1 .414-.195c1.109-.016 2.218-.011 3.327-.007a.465.465 0 0 1 .524.47.476.476 0 0 1-.54.482h-1.664" style="fill:#8fa3c5"/>
    </g>
</svg>
